<svg width="121" height="33" viewBox="0 0 121 33" fill="none" xmlns="http://www.w3.org/2000/svg">
<mask id="mask0_1_165" style="mask-type:luminance" maskUnits="userSpaceOnUse" x="3" y="23" width="13" height="10">
<path d="M3.44528 23.1086H15.4894V32.8945H3.44528V23.1086Z" fill="white"/>
</mask>
<g mask="url(#mask0_1_165)">
<mask id="mask1_1_165" style="mask-type:luminance" maskUnits="userSpaceOnUse" x="2" y="17" width="17" height="19">
<path d="M6.38723 17.8452L18.3034 21.3532L14.2382 35.163L2.32352 31.6565L6.38723 17.8452Z" fill="white"/>
</mask>
<g mask="url(#mask1_1_165)">
<mask id="mask2_1_165" style="mask-type:luminance" maskUnits="userSpaceOnUse" x="2" y="17" width="17" height="19">
<path d="M6.38723 17.8452L18.3034 21.3532L14.2382 35.163L2.32352 31.6565L6.38723 17.8452Z" fill="white"/>
</mask>
<g mask="url(#mask2_1_165)">
<path d="M15.3218 25.3301C15.3497 25.2184 15.3585 25.1052 15.3453 24.9905C15.3321 24.8773 15.2983 24.7685 15.2439 24.6671C15.1895 24.5656 15.1189 24.4774 15.0321 24.4024C14.9454 24.3274 14.8469 24.2701 14.7396 24.2319L11.9226 23.235C11.63 23.1424 11.3301 23.1116 11.0243 23.141C10.7185 23.1704 10.4303 23.2586 10.1613 23.4071L4.18039 26.6666C4.07012 26.7268 3.9775 26.8048 3.89958 26.9018C3.82166 26.9988 3.76432 27.1076 3.72903 27.2267C3.69522 27.3473 3.68345 27.4678 3.69669 27.5928C3.70845 27.7163 3.7452 27.8325 3.80401 27.9427L6.2343 32.396C6.29458 32.5048 6.3725 32.5989 6.46954 32.6783C6.56657 32.7562 6.67537 32.8136 6.79446 32.8489C6.91501 32.8842 7.03704 32.8944 7.16054 32.8812C7.28551 32.868 7.40166 32.8312 7.51193 32.7709L13.5105 29.5012C13.7736 29.3556 14 29.1674 14.1897 28.9337C14.3779 28.6999 14.5146 28.4382 14.5999 28.15L15.3218 25.3301ZM14.619 25.3184C14.5381 25.3625 14.4529 25.3713 14.3632 25.3448C14.275 25.3198 14.2088 25.2654 14.1647 25.1846C14.1206 25.1037 14.1103 25.0184 14.1368 24.9302C14.1632 24.8405 14.2162 24.7744 14.2985 24.7303C14.3794 24.6862 14.4646 24.6773 14.5528 24.7038C14.6411 24.7288 14.7087 24.7832 14.7528 24.8641C14.7969 24.9449 14.8057 25.0302 14.7793 25.1184C14.7528 25.2066 14.6999 25.2728 14.619 25.3184Z" fill="#E28B7A"/>
</g>
</g>
</g>
<mask id="mask3_1_165" style="mask-type:luminance" maskUnits="userSpaceOnUse" x="3" y="23" width="13" height="10">
<path d="M3.82162 23.485H15.113V32.5181H3.82162V23.485Z" fill="white"/>
</mask>
<g mask="url(#mask3_1_165)">
<mask id="mask4_1_165" style="mask-type:luminance" maskUnits="userSpaceOnUse" x="2" y="17" width="17" height="19">
<path d="M6.38723 17.8452L18.3034 21.3532L14.2382 35.163L2.32352 31.6565L6.38723 17.8452Z" fill="white"/>
</mask>
<g mask="url(#mask4_1_165)">
<mask id="mask5_1_165" style="mask-type:luminance" maskUnits="userSpaceOnUse" x="2" y="17" width="17" height="19">
<path d="M6.38723 17.8452L18.3034 21.3532L14.2382 35.163L2.32352 31.6565L6.38723 17.8452Z" fill="white"/>
</mask>
<g mask="url(#mask5_1_165)">
<path d="M14.716 25.8462C14.7043 25.852 14.694 25.8535 14.6807 25.8506C14.6469 25.8447 14.6352 25.8241 14.6455 25.7918L14.7057 25.5521C14.7146 25.5227 14.7351 25.511 14.766 25.5168C14.7969 25.5257 14.8087 25.5462 14.8013 25.5786L14.741 25.8153C14.7366 25.83 14.7278 25.8403 14.716 25.8462ZM13.4472 29.0204C13.4766 29.0042 13.484 28.9822 13.4663 28.9542C13.4502 28.9263 13.4281 28.9189 13.4002 28.9351C13.3546 28.966 13.3076 28.9939 13.2576 29.0204L12.9694 29.1792C12.9459 29.1953 12.9415 29.2174 12.9547 29.2424C12.9694 29.2674 12.9885 29.2747 13.0164 29.2644L13.3046 29.1071C13.3517 29.0821 13.3987 29.0542 13.4472 29.0204ZM12.5886 29.4423C12.5724 29.4129 12.5504 29.4056 12.5225 29.4232L12.0829 29.6614C12.0534 29.6776 12.0461 29.6996 12.0623 29.729C12.0784 29.7584 12.1005 29.7643 12.1299 29.7496L12.568 29.5085C12.5989 29.4938 12.6048 29.4717 12.5886 29.4423ZM11.7079 29.929C11.6918 29.8981 11.6697 29.8922 11.6403 29.9084L11.2022 30.1495C11.1787 30.1657 11.1743 30.1863 11.1875 30.2113C11.2022 30.2363 11.2213 30.2451 11.2492 30.2348L11.6888 29.9952C11.7182 29.979 11.7256 29.9569 11.7079 29.929ZM10.8273 30.4083C10.8126 30.3789 10.7905 30.3715 10.7611 30.3892L10.3245 30.62C10.2951 30.6347 10.2892 30.6582 10.3039 30.6876C10.32 30.717 10.3436 30.7229 10.373 30.7067L10.8111 30.4671C10.8405 30.4524 10.8479 30.4303 10.8302 30.4009L10.8273 30.4083ZM9.95102 30.8861C9.93485 30.8567 9.9128 30.8508 9.88486 30.867L9.44379 31.1096C9.40851 31.1228 9.39969 31.1449 9.41733 31.1787C9.43644 31.2125 9.45997 31.2169 9.49084 31.1949L9.93044 30.9552C9.94661 30.9493 9.9569 30.939 9.96131 30.9229C9.96719 30.9067 9.96278 30.892 9.95249 30.8788L9.95102 30.8861ZM9.08065 31.3595C9.06447 31.3286 9.04242 31.3228 9.01302 31.3389L8.57489 31.5801C8.5396 31.5933 8.53078 31.6168 8.54842 31.6492C8.56607 31.683 8.59106 31.6874 8.62047 31.6653L9.06006 31.4272C9.088 31.411 9.09388 31.3875 9.08065 31.3595ZM8.19998 31.8388C8.18528 31.8094 8.16322 31.8021 8.13382 31.8197L7.69422 32.0579C7.66482 32.0741 7.65747 32.0961 7.67511 32.1255C7.69128 32.152 7.71481 32.1593 7.74274 32.1461L8.18087 31.905C8.21027 31.8873 8.21468 31.8653 8.19557 31.8373L8.19998 31.8388ZM7.32225 32.3181C7.30755 32.2872 7.2855 32.2814 7.25609 32.2975C7.18993 32.3358 7.11789 32.3505 7.04144 32.346C6.96499 32.3402 6.89589 32.3152 6.83414 32.2696C6.8062 32.252 6.78415 32.2549 6.76504 32.2828C6.74593 32.3093 6.75034 32.3328 6.7768 32.3519C6.85472 32.4078 6.94 32.4372 7.03556 32.4431C7.13113 32.449 7.21934 32.4298 7.30314 32.3843C7.33255 32.3666 7.33696 32.3431 7.31784 32.3166L7.32225 32.3181ZM13.8324 28.6778C13.9442 28.5455 14.0338 28.4 14.1029 28.2426C14.1162 28.2118 14.1074 28.1897 14.0765 28.1765C14.0471 28.1647 14.025 28.1721 14.0118 28.2029C13.9471 28.3529 13.8618 28.4896 13.7574 28.6146C13.7354 28.6425 13.7383 28.6661 13.7663 28.6866C13.7839 28.7028 13.8015 28.7043 13.8221 28.694C13.8251 28.6881 13.8265 28.6822 13.8265 28.6764L13.8324 28.6778ZM14.2485 27.756L14.372 27.2708C14.3808 27.2385 14.3691 27.2194 14.3367 27.2105C14.3058 27.2047 14.2853 27.2164 14.2764 27.2473L14.1529 27.731C14.1441 27.7633 14.1559 27.7839 14.1882 27.7913C14.2015 27.7942 14.2132 27.7927 14.225 27.7869C14.2367 27.7795 14.2441 27.7692 14.2456 27.7545L14.2485 27.756ZM6.56656 31.8741L6.32838 31.4345C6.31221 31.4066 6.29015 31.4007 6.26075 31.4139C6.23135 31.4301 6.22399 31.4521 6.24164 31.4816L6.48128 31.9197C6.49452 31.955 6.51804 31.9638 6.55038 31.9461C6.5842 31.9285 6.59008 31.9035 6.56656 31.8741ZM14.4911 26.7842L14.6146 26.299C14.6234 26.2696 14.6116 26.249 14.5808 26.2402C14.5499 26.2328 14.5293 26.2446 14.522 26.2755L14.3955 26.7606C14.3867 26.7915 14.3985 26.8121 14.4308 26.8195C14.444 26.8239 14.4558 26.8224 14.4676 26.8165C14.4808 26.8092 14.4881 26.7989 14.4911 26.7842ZM6.08873 30.9964L5.84909 30.5553C5.83291 30.5259 5.81086 30.52 5.78293 30.5362C5.75205 30.5524 5.74617 30.5744 5.76234 30.6038L6.00052 31.042C6.01669 31.0728 6.03875 31.0787 6.06962 31.0625C6.09902 31.0464 6.10491 31.0243 6.08873 30.9964ZM5.60797 30.1172L5.36832 29.6776C5.35068 29.6555 5.3301 29.6496 5.3051 29.6643C5.28011 29.6776 5.27276 29.6982 5.28305 29.7246L5.53299 30.1628C5.55063 30.1863 5.57121 30.1907 5.59621 30.1775C5.6212 30.1642 5.62855 30.1436 5.61826 30.1172H5.60797ZM5.13014 29.238L4.88903 28.7999C4.87579 28.7646 4.85374 28.7557 4.81993 28.7734C4.78611 28.7925 4.7817 28.816 4.80375 28.8469L5.04193 29.2865C5.0581 29.3159 5.08016 29.3218 5.10956 29.3056C5.13897 29.2909 5.14632 29.2674 5.13014 29.238ZM13.5178 24.3186C13.5281 24.2877 13.5178 24.2657 13.4869 24.2554L13.015 24.0878C12.9841 24.079 12.9635 24.0892 12.9518 24.1187C12.94 24.151 12.9503 24.1716 12.9826 24.1819L13.4531 24.348C13.4854 24.3627 13.5075 24.3524 13.5178 24.3186ZM4.64938 28.3603L4.40973 27.9221C4.40973 27.903 4.40091 27.8883 4.38474 27.8795C4.36857 27.8692 4.35239 27.8692 4.33622 27.878C4.32005 27.8868 4.31123 27.9015 4.31123 27.9207C4.30976 27.9383 4.31711 27.953 4.33328 27.9633L4.5744 28.4014C4.58763 28.4367 4.61115 28.4455 4.6435 28.4279C4.67731 28.4088 4.68173 28.3853 4.65967 28.3544L4.64938 28.3603ZM12.5724 23.9863C12.5842 23.9555 12.5739 23.9349 12.543 23.9246L12.0711 23.757C12.0387 23.7452 12.0182 23.7555 12.0093 23.7878C11.999 23.8187 12.0079 23.8393 12.0373 23.8496L12.5092 24.0172C12.5239 24.0216 12.5372 24.0201 12.5504 24.0128C12.5607 24.0069 12.568 23.9981 12.5724 23.9863ZM11.6271 23.6629C11.6315 23.632 11.6183 23.6129 11.5859 23.6055C11.4168 23.5732 11.2463 23.5629 11.0757 23.5791C11.0419 23.582 11.0272 23.5997 11.0302 23.6335C11.0331 23.6658 11.0522 23.682 11.0846 23.6776C11.2478 23.6629 11.408 23.6702 11.5683 23.704C11.58 23.704 11.5903 23.7026 11.6006 23.6967C11.6153 23.6893 11.6241 23.6791 11.6271 23.6629ZM4.23331 27.4884C4.23478 27.3311 4.30388 27.2149 4.44061 27.1385L4.46266 27.1267C4.48618 27.1106 4.4906 27.0885 4.47589 27.0635C4.46266 27.0385 4.44208 27.0312 4.41561 27.0415L4.39503 27.0562C4.22154 27.1503 4.13333 27.2958 4.13186 27.4928C4.13039 27.5266 4.14803 27.5428 4.18038 27.5428C4.1892 27.5428 4.19655 27.5413 4.2039 27.5369C4.22448 27.5266 4.23478 27.5105 4.23331 27.4884ZM10.642 23.7261C10.6259 23.6967 10.6038 23.6893 10.5759 23.707C10.5053 23.7349 10.4377 23.7658 10.3715 23.8026L10.126 23.9363C10.1039 23.9525 10.0995 23.9746 10.1127 23.9996C10.126 24.0246 10.1466 24.0319 10.173 24.0216L10.4171 23.8878C10.4803 23.8555 10.545 23.8261 10.6112 23.7967C10.6479 23.7849 10.6582 23.7614 10.642 23.7261ZM9.75401 24.1878C9.73784 24.1613 9.71579 24.1539 9.68638 24.1672L9.24825 24.4083C9.21885 24.4245 9.2115 24.4465 9.22914 24.4759C9.24531 24.5024 9.26737 24.5097 9.2953 24.495L9.7349 24.2554C9.76136 24.2392 9.76871 24.2157 9.75401 24.1878ZM8.87481 24.667C8.86011 24.6376 8.83806 24.6318 8.80865 24.6479L8.36906 24.8876C8.33818 24.9038 8.3323 24.9258 8.34847 24.9537C8.36465 24.9846 8.38817 24.9905 8.41757 24.9743L8.8557 24.7332C8.88511 24.7185 8.89099 24.6964 8.87481 24.667ZM7.99856 25.1419C7.98239 25.1125 7.96033 25.1052 7.92946 25.1228L7.49133 25.3625C7.45605 25.3757 7.44722 25.3992 7.46634 25.433C7.48398 25.4654 7.50897 25.4713 7.53838 25.4477L7.97798 25.2096C8.00885 25.1949 8.01473 25.1713 7.99856 25.1419ZM7.11789 25.6227C7.10319 25.5918 7.08114 25.5859 7.05173 25.6021L6.61213 25.8403C6.58273 25.8565 6.57685 25.88 6.59302 25.9094C6.60772 25.9373 6.63125 25.9447 6.66065 25.9285L7.09584 25.6977C7.11054 25.6918 7.11936 25.6815 7.12377 25.6668C7.12818 25.6521 7.12671 25.6389 7.11642 25.6256L7.11789 25.6227ZM6.24017 26.1005C6.22546 26.0711 6.20341 26.0638 6.17401 26.0814L5.73441 26.3225C5.69765 26.3358 5.6903 26.3593 5.70794 26.3931C5.72559 26.4254 5.75058 26.4313 5.77999 26.4078L6.22105 26.1681C6.24752 26.1534 6.25487 26.1314 6.2387 26.1049L6.24017 26.1005ZM5.35656 26.5813C5.33892 26.5548 5.31686 26.5475 5.28746 26.5607L4.85521 26.8033C4.81993 26.8165 4.8111 26.84 4.83022 26.8724C4.84786 26.9062 4.87138 26.9121 4.90226 26.8886L5.33598 26.6489C5.36244 26.6327 5.36979 26.6092 5.35656 26.5813ZM14.2235 24.5715C14.2353 24.5406 14.225 24.5186 14.1941 24.5068L13.9589 24.4333C13.928 24.4215 13.9074 24.4318 13.8971 24.4627C13.8854 24.4936 13.8956 24.5156 13.9265 24.5274L14.1588 24.6082C14.172 24.6126 14.1853 24.6126 14.1985 24.6053C14.2117 24.5979 14.2206 24.5862 14.2235 24.5715Z" fill="#FBFCFB"/>
</g>
</g>
</g>
<mask id="mask6_1_165" style="mask-type:luminance" maskUnits="userSpaceOnUse" x="14" y="20" width="5" height="6">
<path d="M14.3603 20.8503H18.124V25.3669H14.3603V20.8503Z" fill="white"/>
</mask>
<g mask="url(#mask6_1_165)">
<mask id="mask7_1_165" style="mask-type:luminance" maskUnits="userSpaceOnUse" x="2" y="17" width="17" height="19">
<path d="M6.38723 17.8452L18.3034 21.3532L14.2382 35.163L2.32352 31.6565L6.38723 17.8452Z" fill="white"/>
</mask>
<g mask="url(#mask7_1_165)">
<mask id="mask8_1_165" style="mask-type:luminance" maskUnits="userSpaceOnUse" x="2" y="17" width="17" height="19">
<path d="M6.38723 17.8452L18.3034 21.3532L14.2382 35.163L2.32352 31.6565L6.38723 17.8452Z" fill="white"/>
</mask>
<g mask="url(#mask8_1_165)">
<path d="M15.7673 24.5391C15.3247 24.7861 14.9116 24.9684 14.6925 25.0596C14.622 25.0919 14.5558 25.0846 14.494 25.039C14.4294 24.9934 14.4029 24.9317 14.4117 24.8552C14.4191 24.7935 14.4279 24.7332 14.4411 24.6729L14.6337 24.7141C14.622 24.767 14.6131 24.8214 14.6073 24.8758C15.2159 24.6185 17.2154 23.6849 17.6962 22.6558C17.9447 22.1133 17.8873 21.6869 17.533 21.412C17.3713 21.2929 17.1963 21.2693 17.0081 21.3414C16.8038 21.4164 16.6803 21.5604 16.6391 21.7751C16.5685 22.1059 16.4406 22.4147 16.2554 22.6984C16.0701 22.9836 15.8393 23.2247 15.5644 23.4232C15.2424 23.6452 14.988 23.9275 14.7999 24.2701L14.622 24.1789C14.8234 23.8114 15.0968 23.5085 15.4438 23.2703C15.7011 23.0865 15.9158 22.8631 16.0892 22.5984C16.2627 22.3338 16.3803 22.0471 16.4436 21.7383C16.4715 21.606 16.5288 21.4899 16.6156 21.387C16.7023 21.284 16.8082 21.2091 16.9332 21.162C17.0537 21.115 17.1772 21.1017 17.3051 21.1179C17.433 21.1356 17.5492 21.1826 17.6521 21.2576C17.902 21.4487 18.2608 21.8957 17.8741 22.741C17.5521 23.4394 16.5832 24.0937 15.7673 24.5391Z" fill="#3A4A5B"/>
</g>
</g>
</g>
<mask id="mask9_1_165" style="mask-type:luminance" maskUnits="userSpaceOnUse" x="6" y="24" width="7" height="8">
<path d="M6.4563 24.9905H12.4784V31.0126H6.4563V24.9905Z" fill="white"/>
</mask>
<g mask="url(#mask9_1_165)">
<mask id="mask10_1_165" style="mask-type:luminance" maskUnits="userSpaceOnUse" x="2" y="17" width="17" height="19">
<path d="M6.38723 17.8452L18.3034 21.3532L14.2382 35.163L2.32352 31.6565L6.38723 17.8452Z" fill="white"/>
</mask>
<g mask="url(#mask10_1_165)">
<mask id="mask11_1_165" style="mask-type:luminance" maskUnits="userSpaceOnUse" x="2" y="17" width="17" height="19">
<path d="M6.38723 17.8452L18.3034 21.3532L14.2382 35.163L2.32352 31.6565L6.38723 17.8452Z" fill="white"/>
</mask>
<g mask="url(#mask11_1_165)">
<path d="M7.67657 29.0674L8.03971 28.869L8.96743 29.6511L8.42491 28.6705L8.66897 28.5382L9.54817 30.1142L9.25412 30.273L8.17056 29.3674L8.79982 30.5215L8.55576 30.6553L7.67657 29.0674ZM10.4112 28.6087C10.7096 29.1571 10.6802 29.5291 10.3186 29.7261C10.1466 29.832 9.97306 29.8349 9.79811 29.7379C9.58933 29.6041 9.43349 29.4247 9.32763 29.2012C9.02918 28.6543 9.05858 28.2809 9.42026 28.0839C9.58933 27.9809 9.76135 27.9765 9.93631 28.0691C10.148 28.2015 10.3068 28.3823 10.4112 28.6087ZM10.0672 28.7969C9.99365 28.644 9.89661 28.5087 9.77605 28.3911C9.71283 28.3323 9.64226 28.325 9.56728 28.3661C9.49671 28.4058 9.46731 28.4661 9.47907 28.5455C9.51435 28.7087 9.57757 28.8587 9.66579 28.9998C9.73636 29.1542 9.83192 29.2909 9.95101 29.4115C10.0128 29.4747 10.0833 29.4864 10.1613 29.4453C10.2392 29.4041 10.27 29.3409 10.2524 29.2542C10.2171 29.091 10.1554 28.9381 10.0672 28.7969ZM10.048 27.7648L10.3847 27.5825L11.1419 28.5999L10.7376 27.3914L11.0375 27.2252L11.827 28.2353L11.4051 27.0253L11.6815 26.8753L12.2328 28.6528L11.9402 28.8131L11.136 27.8119L11.5359 29.0321L11.2463 29.1909L10.048 27.7648ZM6.57831 27.1341L7.07966 26.8606C7.16934 26.8062 7.26343 26.7665 7.36341 26.7386C7.44427 26.7283 7.51925 26.7445 7.58688 26.7886C7.67363 26.843 7.73832 26.915 7.78389 27.0062C7.83535 27.0753 7.86035 27.1532 7.85594 27.2399C7.853 27.3267 7.82212 27.4017 7.76331 27.4664C7.85888 27.4502 7.95003 27.4649 8.0353 27.5119C8.12205 27.559 8.1838 27.6266 8.22202 27.7163C8.27642 27.8074 8.29995 27.9045 8.29553 28.0103C8.29259 28.0986 8.26172 28.1765 8.20438 28.2426C8.12646 28.3191 8.03971 28.3823 7.94268 28.4323L7.45456 28.6984L6.57831 27.1341ZM7.23403 27.5972L7.33842 27.5428C7.4428 27.484 7.4972 27.4296 7.49867 27.384C7.50455 27.3282 7.49279 27.2738 7.46486 27.2252C7.43986 27.1782 7.40458 27.1429 7.35606 27.1209C7.3046 27.1062 7.23991 27.1106 7.1517 27.1591L7.02526 27.2282L7.23403 27.5972ZM7.59865 28.2647L7.75449 28.1779C7.78684 28.1677 7.81624 28.15 7.83976 28.1265C7.86476 28.103 7.8824 28.075 7.89269 28.0427C7.90298 28.0103 7.90739 27.978 7.90151 27.9442C7.8971 27.9104 7.88534 27.8795 7.86623 27.8516C7.83829 27.7854 7.79125 27.7428 7.72362 27.7207C7.65304 27.7134 7.58983 27.7266 7.52955 27.7648L7.37223 27.8516L7.59865 28.2647ZM7.81771 26.4578L8.14116 26.2828L8.62928 27.1753C8.67779 27.2664 8.73366 27.3517 8.79982 27.4311C8.83364 27.4737 8.87627 27.4987 8.9292 27.5075C8.98213 27.5149 9.03065 27.5046 9.07475 27.4796C9.12474 27.4575 9.16003 27.4208 9.17914 27.3708C9.19972 27.3208 9.19825 27.2708 9.17767 27.2223C9.14091 27.1311 9.09828 27.0429 9.05123 26.9562L8.54694 26.0608L8.81599 25.9138L9.29676 26.7974C9.37174 26.9283 9.43349 27.0635 9.48201 27.2061C9.50994 27.309 9.50259 27.4105 9.45848 27.5075C9.39968 27.6296 9.30852 27.7192 9.18649 27.7766C9.08358 27.8413 8.97037 27.8721 8.84834 27.8721C8.74983 27.8663 8.66309 27.8324 8.58811 27.7663C8.47049 27.6428 8.37493 27.5061 8.29994 27.3531L7.81771 26.4578ZM8.89392 25.8741L9.24824 25.6786L9.76723 26.1373L9.67755 25.4463L9.99365 25.2742L10.073 26.399L10.4332 27.062L10.1113 27.2385L9.74959 26.5754L8.89392 25.8741Z" fill="white"/>
</g>
</g>
</g>
<mask id="mask12_1_165" style="mask-type:luminance" maskUnits="userSpaceOnUse" x="0" y="0" width="43" height="30">
<path d="M0.473938 0.208344H42.5342V29.2836H0.473938V0.208344Z" fill="white"/>
</mask>
<g mask="url(#mask12_1_165)">
<path d="M42.2916 18.1466C42.0476 17.9628 41.8021 17.782 41.5051 17.6879C41.408 17.657 41.3095 17.6364 41.3345 17.4806C41.3948 17.0954 41.4271 16.7058 41.4845 16.3206C41.5933 15.5913 41.7344 14.8665 41.7609 14.127C41.7712 13.8359 41.6447 13.6286 41.3625 13.5198C41.1081 13.4213 40.8538 13.3242 40.5862 13.261C40.0172 13.1228 39.4467 13.0067 38.7837 12.9964C39.2674 12.4833 39.6893 12.0157 40.1319 11.5688C40.4142 11.2836 40.7258 11.0277 40.9596 10.6969C41.1037 10.4926 41.0802 10.3353 40.8361 10.2191C40.4259 10.0236 40.0025 9.86627 39.5747 9.72072C38.4352 9.33111 37.2546 9.13557 36.0682 8.95473C35.3507 8.84446 34.642 8.69156 33.9158 8.6401C32.3397 8.52689 30.8047 8.85328 29.264 9.07382C28.3127 9.20908 27.3688 9.44872 26.4676 9.8104C26.1985 9.9192 26 9.9192 25.8251 9.62368C25.4399 8.96502 24.915 8.40927 24.4298 7.82559C24.274 7.63887 24.2593 7.50802 24.3504 7.30072C24.6107 6.70381 24.8768 6.1069 25.0944 5.49381C25.2973 4.92483 25.1767 4.472 24.7871 4.29116C23.5962 3.73836 22.4259 3.13557 21.1424 2.80918C20.6411 2.68274 20.25 2.77977 19.9559 3.20761C19.8912 3.3017 19.8383 3.34581 19.7354 3.25612C19.1061 2.70626 18.3225 2.42545 17.5962 2.05201C17.0449 1.76825 16.5127 1.44333 15.9275 1.22868C15.0321 0.899349 14.1471 0.550905 13.2238 0.295085C12.9077 0.208342 12.7415 0.231865 12.543 0.500917C11.2581 2.23873 9.93486 3.94713 8.61607 5.66142C7.7751 6.75527 7.01205 7.90499 6.13579 8.97825C4.69644 10.7425 3.26297 12.5142 1.91477 14.3519C1.68835 14.6592 1.55897 14.9709 1.65601 15.3487C1.74863 15.7119 1.64424 16.0089 1.38401 16.2676C1.1576 16.4911 0.966469 16.7455 0.823857 17.0307C0.504818 17.6644 0.547454 17.9658 1.28404 18.3745C1.35608 18.4156 1.43841 18.4392 1.51633 18.4715C2.16471 18.7479 2.8763 18.8758 3.49526 19.1934C4.2686 19.5904 5.05517 19.9315 5.87262 20.2079C6.96941 20.5798 7.98534 21.1503 9.09683 21.4899C10.1819 21.8207 11.286 22.0897 12.3122 22.6014C13.631 23.26 15.0924 23.5644 16.4259 24.1936C16.595 24.273 16.7817 24.3142 16.964 24.3657C17.9726 24.6524 19.0047 24.8758 19.9868 25.2375C20.9263 25.583 21.8805 25.8726 22.8405 26.1402C24.1858 26.5151 25.5516 26.8092 26.8689 27.287C28.4392 27.856 30.1049 28.125 31.6398 28.8087C31.9648 28.9542 32.3088 29.0674 32.6543 29.1498C33.4967 29.3541 33.6702 29.2806 33.9775 28.8631C34.3406 28.372 34.7067 27.881 35.0905 27.4061C35.7565 26.5857 36.4872 25.8227 37.1503 24.9993C37.8633 24.1113 38.5573 23.2056 39.3527 22.3838C40.4641 21.2355 41.3448 19.8962 42.3563 18.6641C42.5107 18.4759 42.4931 18.298 42.2916 18.1466Z" fill="#1E3F48"/>
</g>
<path d="M22.4847 5.57025C22.4568 5.78343 22.4759 5.93633 22.8332 5.8687C23.0875 5.82165 23.2257 6.0863 23.3022 6.30536C23.3801 6.52883 23.2478 6.66557 23.0375 6.72732C22.767 6.80524 22.6641 6.90962 22.8685 7.18897C23.0331 7.41391 22.9037 7.65062 22.7597 7.85645C22.6303 8.04023 22.4935 8.24459 22.2333 8.1799C21.9672 8.11374 21.879 8.23283 21.807 8.45483C21.657 8.91501 21.3923 9.09732 21.0277 9.02234C20.7219 8.95912 20.6087 8.78563 20.669 8.47395C20.7322 8.15491 20.7102 8.13432 20.3867 8.1946C20.0691 8.25488 19.853 8.11962 19.7369 7.79029C19.6457 7.52859 19.7428 7.25513 20.0486 7.16397C20.4485 7.04488 20.3338 6.88757 20.1676 6.65674C19.9251 6.31859 19.953 5.98191 20.2235 5.64523C20.5043 5.29678 20.6999 5.28208 21.0292 5.58348C21.1057 5.65258 21.1674 5.78931 21.2688 5.76726C21.4012 5.73932 21.3291 5.58789 21.3497 5.49232C21.4732 4.91599 21.8319 4.74398 22.298 5.02626C22.5024 5.14976 22.495 5.3306 22.4847 5.57025ZM20.8322 7.16838C20.8322 7.59328 21.0424 7.82558 21.4218 7.82116C21.8349 7.81675 22.2921 7.35069 22.2936 6.93315C22.2951 6.58617 21.8349 6.18039 21.4497 6.18921C21.1321 6.19656 20.8322 6.67439 20.8322 7.16838ZM18.5357 10.0294C17.9108 10.8337 17.8021 12.1128 18.3034 12.942C18.5328 11.9496 18.7356 11.0292 18.5357 10.0294ZM19.8692 14.0755C20.7263 13.6006 21.0954 13.1404 21.2747 12.3009C20.6102 12.7714 20.1044 13.2948 19.8692 14.0755Z" fill="#E28B7A"/>
<path d="M24.8283 5.05715C24.8283 5.25122 24.7783 5.43206 24.7018 5.60702C23.4124 8.53424 22.223 11.4982 21.2718 14.5563C21.0145 15.387 20.7307 16.2132 20.3367 16.9969C20.1882 17.2894 20.025 17.3791 19.6972 17.2983C19.0326 17.1351 18.3887 16.9013 17.7491 16.672C17.0831 16.4352 16.4068 16.2471 15.7246 16.0794C15.4159 16.0045 15.3027 15.878 15.3791 15.5575C15.5217 14.9533 15.679 14.3563 15.9407 13.7888C16.1436 13.3492 16.2995 12.8905 16.4671 12.4362C17.1463 10.5896 17.8844 8.76801 18.7107 6.98168C18.94 6.48768 19.1297 5.97163 19.3017 5.45411C19.5266 4.77193 19.8648 4.1412 20.1412 3.48254C20.3353 3.02088 20.5734 2.93414 21.0468 3.06646C22.2877 3.41638 23.4227 4.02064 24.6004 4.52346C24.7842 4.60138 24.8371 4.74693 24.8283 5.05715ZM23.6021 6.41564C23.5727 6.13336 23.4477 5.87313 23.2184 5.74963C22.917 5.58937 22.7082 5.41295 22.6817 5.05568C22.6729 4.93806 22.5524 4.86896 22.4524 4.80721C21.8658 4.45289 21.5011 4.56315 21.1909 5.19535C21.1424 5.2968 21.1233 5.33355 21.0071 5.25416C20.8645 5.1586 20.7057 5.06597 20.5087 5.13801C20.0339 5.31003 19.4913 6.09072 19.9001 6.69351C20.0265 6.88023 19.9736 6.93022 19.8148 7.03755C19.3017 7.38305 19.3546 8.18285 19.9324 8.37987C20.2426 8.48572 20.3794 8.59158 20.4793 8.91209C20.5514 9.14585 20.6322 9.30758 20.4779 9.52076C20.4205 9.60162 20.4058 9.7163 20.3852 9.81922C20.2662 10.3794 20.0486 10.9013 19.7575 11.3924C19.6222 11.6202 19.5325 11.8672 19.4369 12.1113C19.1517 12.842 19.0135 13.6021 18.9253 14.3769C18.8636 14.9224 18.6195 15.4223 18.4622 15.9442C18.4357 16.0353 18.374 16.1368 18.4989 16.1824C18.6151 16.225 18.6665 16.125 18.6959 16.0295C18.8665 15.4914 19.1179 14.9768 19.1914 14.4078C19.2884 13.6448 19.4105 12.8846 19.7178 12.176C20.0941 11.313 20.5778 10.4926 20.7499 9.55017C20.7616 9.48989 20.8087 9.43696 20.8248 9.37668C20.8498 9.27817 20.9189 9.28111 20.9969 9.28553C21.5085 9.31052 21.8319 9.12086 22.0187 8.65186C22.0716 8.5166 22.1128 8.45485 22.273 8.45044C22.842 8.43279 23.3301 7.72561 23.1463 7.17281C23.0949 7.01696 23.1243 6.98168 23.2537 6.93022C23.4845 6.84054 23.58 6.64647 23.6021 6.41564ZM18.8709 10.8498C18.9077 10.4735 18.8636 10.1133 18.6827 9.77805C18.6386 9.69719 18.6092 9.5928 18.4886 9.60015C18.3754 9.60604 18.3402 9.70013 18.2975 9.7854C18.0785 10.2147 17.8814 10.6572 17.7491 11.1189C17.558 11.7893 17.7565 12.4201 18.0402 13.0273C18.0873 13.1287 18.1725 13.2301 18.3107 13.2052C18.4342 13.1831 18.4534 13.064 18.4886 12.9684C18.7356 12.2833 18.8577 11.5747 18.8709 10.8498ZM19.6354 14.4754C20.8616 13.9564 21.4026 13.2713 21.6158 12.1907C21.6364 12.0878 21.6408 12.0069 21.56 11.9334C21.4614 11.8423 21.3821 11.9216 21.3056 11.9672C20.7234 12.3157 20.2514 12.7788 19.9133 13.3639C19.7192 13.6991 19.6075 14.0652 19.6354 14.4754ZM22.8214 17.1277C23.7153 16.941 24.5754 16.6352 25.4561 16.397C25.6957 16.3323 25.9618 16.2544 26.1162 16.0486C26.7043 15.2649 27.2909 14.4798 27.7996 13.6418C27.9113 13.4566 27.8481 13.4125 27.657 13.3963C27.3144 13.3683 26.991 13.4624 26.6646 13.5301C25.5619 13.7594 24.596 14.2005 23.9785 15.215C23.8168 15.484 23.5962 15.7178 23.4036 15.9677C23.1213 16.3323 22.7964 16.6661 22.5906 17.1424C22.6964 17.1365 22.7611 17.141 22.8214 17.1277ZM21.507 6.54649C21.2659 6.53767 21.0968 6.7832 21.0998 7.16399C21.0998 7.37423 21.1806 7.53301 21.4276 7.53154C21.6893 7.53154 21.9731 7.22721 21.9775 6.94198C21.9804 6.71263 21.7937 6.55678 21.507 6.54649Z" fill="#E0F1EF"/>
<path d="M1.67072 16.3926C1.67807 16.4941 1.6913 16.5441 1.68248 16.5911C1.58103 17.191 1.87361 17.4924 2.41759 17.6908C4.36124 18.398 6.30047 19.117 8.22793 19.8682C10.0495 20.5769 11.8756 21.2782 13.6251 22.1544C14.3882 22.5367 15.21 22.7675 15.9863 23.1233C16.4215 23.3233 16.9802 23.2821 17.4742 23.4218C19.0238 23.8599 20.6234 24.0555 22.1995 24.3701C25.3032 24.9905 28.3304 25.8535 31.2341 27.1253C31.7045 27.3311 32.1309 27.6296 32.6411 27.756C32.8704 27.8119 33.041 27.8148 33.2071 27.6325C33.8746 26.8989 34.5083 26.1358 35.1493 25.3801C36.2696 24.0599 37.4208 22.7661 38.5602 21.4649C39.1586 20.7813 39.7526 20.0947 40.4259 19.4801C40.8376 19.1037 41.1463 18.6568 41.2581 18.0996C41.2963 17.9099 41.383 17.9202 41.5139 17.9922C41.533 18.0025 41.5506 18.0128 41.5698 18.0216C42.2034 18.3304 42.202 18.348 41.7638 18.8817C40.9758 19.8462 40.2995 20.9003 39.4409 21.806C37.8177 23.5173 36.446 25.4404 34.8655 27.1856C34.4568 27.6355 34.1186 28.1515 33.7584 28.6455C33.5541 28.9278 33.2762 29.0351 32.8616 28.9013C32.3014 28.7205 31.7398 28.5382 31.2017 28.3044C30.0667 27.8089 28.8346 27.634 27.682 27.2135C25.534 26.4313 23.2742 26.0344 21.1204 25.2934C19.6575 24.7906 18.1549 24.4362 16.695 23.9364C15.4453 23.5085 14.1985 23.0572 12.9885 22.5279C11.7609 21.9913 10.5097 21.5428 9.22328 21.1797C8.16618 20.8812 7.20907 20.3299 6.17697 19.9638C5.30512 19.6565 4.43181 19.3522 3.62906 18.8714C3.33208 18.6921 2.95864 18.6347 2.61755 18.5318C2.13237 18.3863 1.67219 18.1775 1.21642 17.9614C0.973831 17.8467 0.872385 17.685 0.979712 17.4027C1.12526 17.0219 1.36491 16.719 1.67072 16.3926Z" fill="#063547"/>
<path d="M14.988 15.7354C14.3985 15.3487 13.8603 14.9253 13.2796 14.5622C11.2757 13.3066 9.18944 12.2201 6.94881 11.4438C6.8503 11.41 6.74592 11.3894 6.64594 11.3571C6.54597 11.3262 6.42394 11.2556 6.37248 11.3924C6.30926 11.5658 6.4901 11.5629 6.58125 11.6011C7.33842 11.9158 8.11617 12.1848 8.85422 12.5377C10.7567 13.4477 12.6268 14.4196 14.3264 15.6839C14.8777 16.0927 15.4291 16.5014 15.9848 16.9042C16.5376 17.3056 16.9978 17.7952 17.3977 18.3436C17.4168 18.3701 17.4301 18.3995 17.4492 18.423C17.5271 18.5185 17.6256 18.6068 17.7432 18.5156C17.8491 18.4333 17.7829 18.3274 17.7212 18.2348C17.4051 17.757 17.0213 17.338 16.595 16.9572C16.4641 16.8395 16.323 16.7322 16.2024 16.5911C17.5212 16.8351 18.7165 17.4894 20.0809 17.6835C18.8121 19.2948 17.533 20.8739 16.2568 22.4088C15.1938 20.9959 13.8942 19.8271 12.3519 18.8905C10.6009 17.8261 8.68515 17.1468 6.81061 16.3838C5.24775 15.7486 3.60992 15.2973 1.96474 14.7504C2.21615 14.4254 2.47638 14.1108 2.71161 13.7785C3.88191 12.1363 5.19777 10.6073 6.46069 9.03999C7.31195 7.98731 8.04707 6.8567 8.86746 5.78638C10.1642 4.09708 11.4815 2.42249 12.7136 0.684684C12.8312 0.518549 12.9194 0.499436 13.1135 0.549423C14.0382 0.793481 14.9233 1.14487 15.8158 1.48449C16.32 1.67709 16.7817 1.95055 17.258 2.19608C18.024 2.58863 18.8371 2.89444 19.5384 3.4149C19.7236 3.5531 19.7471 3.64719 19.6472 3.84126C19.359 4.39848 19.1017 4.96893 18.9194 5.57907C17.2404 4.2294 15.3453 3.38108 13.3869 2.65479C13.2914 2.6195 13.1149 2.43426 13.0488 2.63715C12.9885 2.81504 13.212 2.84445 13.3414 2.89885C14.3455 3.32962 15.3556 3.74864 16.3171 4.27204C17.0302 4.66018 17.7462 5.04685 18.3813 5.55849C18.7783 5.879 18.7753 5.88194 18.6092 6.34212C18.3798 6.97726 18.0652 7.57417 17.7947 8.19167C17.7212 8.35927 17.6726 8.38721 17.5227 8.25489C16.9993 7.79471 16.4274 7.3948 15.8701 6.97726C14.7013 6.10247 13.3708 5.54085 12.0476 4.96305C11.9152 4.90571 11.7756 4.8616 11.6609 4.75722C11.5771 4.68076 11.4565 4.67635 11.3918 4.79397C11.333 4.9013 11.4095 4.97775 11.4977 5.02186C11.8197 5.17917 12.1372 5.34384 12.468 5.4791C14.2661 6.20833 15.8496 7.27866 17.3389 8.50336C17.4962 8.63274 17.5594 8.74594 17.4683 8.95472C17.2198 9.5237 16.9934 10.103 16.7655 10.6793C16.6964 10.8557 16.642 10.8572 16.4818 10.7499C14.888 9.68248 13.3399 8.54305 11.63 7.65945C11.1345 7.40363 10.6317 7.16251 10.0804 7.04342C9.96866 7.01843 9.85398 6.98902 9.81722 7.1184C9.779 7.25366 9.90544 7.28454 10.0098 7.31394C10.7464 7.51977 11.4124 7.87998 12.0696 8.25783C13.509 9.08263 14.841 10.0677 16.2318 10.966C16.4582 11.113 16.5391 11.2395 16.4171 11.5173C16.2142 11.9775 16.0569 12.4597 15.8951 12.939C15.8378 13.1111 15.7834 13.0963 15.6584 12.9993C13.6134 11.4159 11.3095 10.322 8.88657 9.45753C8.66603 9.37961 8.44256 9.32815 8.20732 9.33845C8.13234 9.34139 8.04707 9.34286 8.03531 9.43695C8.0206 9.54428 8.10294 9.57221 8.19115 9.59721C10.123 10.1485 11.9417 10.9601 13.6413 12.029C14.2838 12.4333 14.9498 12.8052 15.5291 13.3022C15.6084 13.3713 15.7349 13.4095 15.6511 13.5756C15.3115 14.2475 15.1409 14.9753 14.988 15.7354ZM5.12426 13.2228C5.05663 13.2154 4.98752 13.2316 4.98017 13.3066C4.96988 13.4066 5.03751 13.4477 5.13455 13.4683C5.44183 13.5345 5.75351 13.5918 6.05344 13.6815C8.47784 14.4093 10.6464 15.6634 12.7944 16.9557C14.147 17.7702 15.4247 18.6832 16.4288 19.927C16.4994 20.0138 16.5891 20.1314 16.7155 20.0123C16.8346 19.8991 16.7288 19.7947 16.6582 19.7109C16.1907 19.1493 15.6937 18.6126 15.1247 18.1569C14.1088 17.3453 12.9665 16.7249 11.8682 16.0383C10.1407 14.9577 8.31465 14.1226 6.38718 13.486C5.97405 13.3492 5.55356 13.2728 5.12426 13.2228ZM16.8508 22.2338C17.483 21.3884 18.1799 20.5945 18.8356 19.7697C20.5117 17.6643 22.1274 15.5134 23.7403 13.361C24.4563 12.4083 25.1693 11.4541 25.8795 10.497C26.0235 10.3044 26.1985 10.1838 26.4293 10.1044C27.3556 9.78687 28.3039 9.52222 29.2654 9.39137C30.7959 9.1826 32.3205 8.84739 33.8834 8.9606C34.6008 9.01353 35.3007 9.16496 36.0064 9.27964C37.1708 9.46783 38.3338 9.64866 39.4526 10.0383C39.7805 10.153 40.1024 10.2838 40.4303 10.3985C40.6655 10.4793 40.7229 10.5573 40.5141 10.7631C40.0686 11.1968 39.6129 11.6202 39.1791 12.0672C37.8486 13.4374 36.6254 14.8988 35.3918 16.35C34.5803 17.3071 33.6922 18.201 32.9821 19.2404C32.494 19.9535 32.0427 20.6915 31.4943 21.3634C31.3796 21.5031 31.2811 21.5428 31.1252 21.5002C30.2946 21.2693 29.4403 21.2605 28.5906 21.1944C27.8746 21.137 27.16 21.0429 26.444 21.0562C25.0532 21.0826 23.6594 20.9812 22.2715 21.1738C21.5217 21.2782 20.7572 21.2767 20.0103 21.4267C18.9576 21.6384 17.9432 21.9927 16.914 22.2882C16.892 22.2706 16.8714 22.2515 16.8508 22.2338ZM22.5788 17.4688C22.6847 17.4615 22.7493 17.4629 22.8111 17.4512C23.7535 17.2791 24.6606 16.9792 25.5781 16.7131C25.8765 16.6264 26.1941 16.5205 26.3911 16.2529C27.0027 15.4193 27.6408 14.6048 28.1436 13.6977C28.3509 13.3272 28.2906 13.2375 27.8878 13.1419C27.3791 13.0214 26.9057 13.1934 26.4264 13.2831C25.5487 13.4492 24.7165 13.7153 24.1711 14.5181C23.9285 14.8739 23.6315 15.1929 23.3624 15.531C22.9611 16.0339 22.5362 16.5176 22.2289 17.0895C22.1171 17.2953 22.0172 17.4423 22.3759 17.4232C22.4553 17.4188 22.5376 17.4585 22.5788 17.4688ZM31.9412 12.2554C33.3467 12.3201 34.7626 12.3304 36.1064 12.8493C36.2402 12.9008 36.4033 12.9523 36.4533 12.7758C36.4989 12.6171 36.3195 12.595 36.2078 12.5494C34.9449 12.0246 33.5996 11.9731 32.2676 11.9172C31.1135 11.8672 29.9505 11.8864 28.7934 12.0025C28.0598 12.076 27.3218 12.1216 26.6116 12.3289C26.1691 12.4583 25.7368 12.6244 25.3031 12.7817C25.2311 12.8082 25.1282 12.8626 25.1664 12.964C25.2046 13.064 25.3105 13.0228 25.3899 13.0111C25.431 13.0052 25.4678 12.9787 25.5075 12.967C26.3146 12.7332 27.1144 12.445 27.9584 12.3951C29.283 12.3157 30.6062 12.1216 31.9412 12.2554ZM32.0706 10.4882C31.3546 10.4294 30.7415 10.6734 30.1049 10.7308C28.8993 10.8395 27.7187 11.0998 26.5308 11.3144C26.4426 11.3306 26.2823 11.3424 26.3073 11.4791C26.3323 11.6158 26.4837 11.5717 26.5793 11.557C27.6055 11.3953 28.6244 11.1806 29.6624 11.0924C30.324 11.0351 30.9694 10.8263 31.6266 10.8175C32.6454 10.8013 33.6643 10.6631 34.6861 10.8587C35.4374 11.0013 36.221 10.9572 36.9547 11.2262C37.0811 11.2718 37.2223 11.2791 37.359 11.2938C37.481 11.3056 37.6545 11.3306 37.6824 11.1895C37.7089 11.0483 37.5501 10.9998 37.4193 10.9763C37.2855 10.9513 37.1517 10.9234 37.0194 10.8895C35.6859 10.5484 34.3259 10.4308 32.9542 10.4294C32.6396 10.4294 32.3235 10.4705 32.0706 10.4882ZM28.4391 17.9731C29.3624 17.9628 30.1931 18.1333 30.9738 18.47C31.1664 18.5524 31.3619 18.6376 31.5766 18.6303C31.6589 18.6273 31.7515 18.5994 31.7751 18.5009C31.7942 18.4156 31.7501 18.3598 31.6619 18.3465C31.209 18.2774 30.8209 18.0231 30.3872 17.8937C28.9037 17.4512 27.385 17.6496 25.8898 17.6908C24.2122 17.7379 22.5538 18.0863 20.9277 18.5347C20.838 18.5597 20.7087 18.5524 20.7263 18.6773C20.744 18.8141 20.8807 18.8038 20.9821 18.7861C21.2409 18.742 21.4997 18.6979 21.754 18.6332C23.0625 18.2995 24.3975 18.1216 25.7398 18.0231C26.6631 17.9555 27.5923 18.0437 28.4391 17.9731ZM26.5205 19.1787C24.4386 19.1684 22.7317 19.4095 21.0277 19.6947C20.6352 19.7609 20.2426 19.8285 19.8515 19.9035C19.7795 19.9167 19.6633 19.9241 19.6883 20.0491C19.7119 20.1726 19.8001 20.174 19.9074 20.1564C20.3646 20.0858 20.8219 20.0182 21.2791 19.9579C22.2803 19.8226 23.2772 19.6462 24.2813 19.5742C25.5104 19.486 26.7425 19.4433 27.9745 19.6139C28.692 19.7124 29.4212 19.7227 30.0799 20.0932C30.2093 20.1652 30.3842 20.1637 30.5386 20.1858C30.6371 20.2005 30.7459 20.1887 30.7636 20.0696C30.7783 19.9608 30.6856 19.877 30.593 19.88C30.2901 19.8859 30.0578 19.7036 29.7917 19.6124C28.617 19.2066 27.382 19.2875 26.5205 19.1787ZM35.2654 13.9241C35.2522 13.8388 35.2007 13.7918 35.1272 13.7653C34.9596 13.7065 34.7949 13.6345 34.6229 13.5918C33.8378 13.3933 33.0395 13.2698 32.2294 13.2243C31.2046 13.1669 30.1872 13.2404 29.1728 13.361C29.0875 13.3713 28.8905 13.3419 28.9155 13.5124C28.9346 13.6418 29.0904 13.5962 29.1889 13.5918C29.7903 13.5683 30.3916 13.5536 30.99 13.5095C31.7633 13.4536 32.5264 13.5551 33.2879 13.6389C33.8599 13.7006 34.4259 13.8285 34.9684 14.0402C35.1051 14.0932 35.2154 14.0858 35.2654 13.9241ZM29.5918 14.6033C29.2639 14.6033 28.9361 14.6033 28.6097 14.6033C28.5126 14.6033 28.398 14.6019 28.3965 14.7298C28.3965 14.8518 28.5082 14.8636 28.6067 14.8694C28.7743 14.8812 28.9434 14.9018 29.111 14.9033C30.2093 14.9121 31.3017 14.9871 32.3852 15.1723C32.8307 15.2488 33.2762 15.3164 33.7069 15.4605C33.8157 15.4972 33.9554 15.556 34.0098 15.4164C34.0716 15.2576 33.9231 15.2032 33.8025 15.1591C33.6849 15.1164 33.5658 15.0723 33.4438 15.0459C32.175 14.7621 30.8915 14.6048 29.5918 14.6033ZM28.7243 15.8883C28.4994 15.8883 28.151 15.8883 27.8025 15.8868C27.6922 15.8868 27.5687 15.8971 27.557 16.0236C27.5438 16.1794 27.6849 16.1603 27.7863 16.1632C28.1877 16.1735 28.5891 16.1971 28.989 16.1824C30.1593 16.1397 31.2825 16.4294 32.4161 16.6528C32.5646 16.6822 32.7778 16.8807 32.8527 16.6528C32.9292 16.422 32.6454 16.4235 32.494 16.3544C32.4749 16.3456 32.4558 16.3353 32.4352 16.3308C31.2487 16.1044 30.0711 15.803 28.7243 15.8883ZM17.5609 22.8293C18.6577 22.7043 19.7545 22.7425 20.8498 22.8175C21.7937 22.8837 22.7346 23.0027 23.6771 23.1042C24.6503 23.2086 25.6266 23.2644 26.591 23.4453C28.0877 23.7261 29.5874 23.9863 31.0061 24.57C31.2296 24.6626 31.3943 24.6009 31.5295 24.4186C32.0427 23.7334 32.6616 23.1365 33.2526 22.5249C34.1995 21.5472 35.1007 20.5269 36.0211 19.5257C37.7207 17.6776 39.3953 15.8045 41.1889 14.0446C41.3712 13.8667 41.2948 13.8344 41.1169 13.7638C40.3347 13.4566 39.5158 13.3419 38.6837 13.2831C38.5969 13.2772 38.5219 13.2801 38.4558 13.3566C38.0735 13.8065 37.6075 14.1814 37.2546 14.6592C36.3916 15.8222 35.3757 16.8572 34.4509 17.9687C33.8716 18.667 33.2879 19.3551 32.7954 20.1196C32.5278 20.5357 32.2308 20.9341 31.9383 21.334C31.6413 21.7398 31.2972 22.0295 30.7533 21.7531C30.6989 21.7251 30.6327 21.7222 30.5695 21.7104C29.6756 21.5472 28.7655 21.556 27.8628 21.4693C26.422 21.3296 24.9709 21.3634 23.5256 21.4046C22.5479 21.434 21.5717 21.5649 20.5984 21.6795C19.4325 21.8148 18.3343 22.2353 17.211 22.544C17.011 22.5984 16.8126 22.6749 16.6141 22.8337C16.9537 22.8351 17.261 22.8631 17.5609 22.8293ZM2.31465 17.3321C3.30411 17.7114 4.28329 18.126 5.28451 18.4715C7.61041 19.2728 9.90103 20.1652 12.1608 21.1297C13.4399 21.6766 14.7013 22.272 15.9951 22.7837C15.9143 22.472 15.7452 22.1941 15.5129 21.9427C14.9689 21.3517 14.4014 20.7842 13.7854 20.2696C13.3811 19.9314 12.9665 19.605 12.5077 19.3389C11.3418 18.6612 10.1348 18.076 8.88363 17.5644C7.37664 16.9498 5.88877 16.2912 4.32151 15.831C3.52906 15.5987 2.74984 15.3164 1.94121 15.0473C1.94121 15.2149 1.94268 15.3517 1.94121 15.4869C1.93827 15.5987 1.98238 15.6722 2.1 15.681C2.73808 15.731 3.31441 15.9986 3.90985 16.1985C5.25364 16.6499 6.59154 17.1174 7.89858 17.6629C8.66162 17.9804 9.41144 18.3612 10.1818 18.6406C11.258 19.0317 12.2063 19.6139 13.162 20.2064C13.6192 20.4887 13.9515 20.8988 14.3441 21.3105C14.1279 21.3326 14.0353 21.2223 13.9397 21.1356C13.1414 20.4151 12.1975 19.9197 11.2698 19.4022C10.7655 19.1199 10.1804 19.0184 9.6702 18.7406C8.91156 18.3274 8.09412 18.0481 7.29725 17.7276C5.91524 17.1733 4.49647 16.7058 3.09534 16.1985C2.72484 16.0647 2.34847 15.9648 1.98385 15.9207C1.82359 16.3191 2.03237 16.4764 2.347 16.5926C2.63369 16.6969 2.91156 16.8131 3.22031 16.8454C3.78488 16.9057 4.25682 17.2439 4.79493 17.3821C5.5418 17.5732 6.23869 17.8908 6.95322 18.1657C7.7001 18.4509 8.40286 18.8508 9.14974 19.114C10.0745 19.4404 10.9596 19.8447 11.8594 20.2255C12.221 20.3784 12.5577 20.571 12.8621 20.8165C13.0752 20.9871 13.2825 21.1694 13.3987 21.4296C12.8753 21.1062 12.3798 20.7533 11.8138 20.5166C11.2419 20.2784 10.6744 20.027 10.1113 19.7682C9.5864 19.5257 9.01154 19.436 8.49108 19.164C7.35312 18.5729 6.14606 18.1363 4.94048 17.7011C3.96572 17.3497 2.96155 17.0954 1.9618 16.7175C1.90593 17.0233 2.02502 17.2203 2.31465 17.3321ZM32.3102 27.2899C32.3014 27.0606 32.1794 26.8489 31.9897 26.7945C31.0267 26.5166 30.1461 26.0373 29.211 25.6977C28.1377 25.3081 27.0277 25.0464 25.9294 24.745C25.8515 24.7229 25.7604 24.6979 25.7912 24.5774C26.0265 24.5362 26.2529 24.5582 26.4764 24.6288C26.8175 24.7347 27.1541 24.8523 27.4996 24.9376C28.4847 25.1846 29.4653 25.4345 30.3916 25.8726C30.8429 26.0873 31.3031 26.2975 31.7986 26.4063C31.8089 26.396 31.8192 26.3843 31.8295 26.374C31.8118 26.3034 31.7898 26.2328 31.7765 26.1593C31.7221 25.8667 31.5795 25.6962 31.2561 25.6374C30.793 25.5536 30.3416 25.4051 29.8844 25.2845C28.6156 24.9537 27.3512 24.6141 26.0647 24.3524C25.2825 24.1936 24.4916 24.0995 23.7035 23.976C23.7388 23.8658 23.8123 23.8614 23.8873 23.8628C24.2152 23.8643 24.5474 23.8305 24.8679 23.8746C26.2206 24.0584 27.5452 24.3803 28.8625 24.7332C29.7491 24.9714 30.6386 25.1904 31.5589 25.4272C31.4663 25.1449 31.4105 24.8935 31.0532 24.914C30.9341 24.9199 30.8091 24.8567 30.69 24.8155C29.9638 24.5729 29.2566 24.273 28.4921 24.1451C27.3409 23.951 26.2058 23.6511 25.04 23.5614C23.6418 23.4541 22.2568 23.2277 20.8586 23.1351C19.803 23.0645 18.7459 23.0263 17.6859 23.1454C18.0461 23.2483 18.4078 23.3468 18.7738 23.4159C20.6925 23.7746 22.6156 24.0995 24.5136 24.5553C27.0233 25.1581 29.4624 25.9682 31.8104 27.0473C31.9794 27.1253 32.1029 27.2988 32.3132 27.2855L32.3102 27.2899ZM32.497 24.7891C33.2953 23.9775 34.1024 23.1733 34.9008 22.3617C35.7447 21.5031 36.6136 20.668 37.4149 19.7727C38.4573 18.6068 39.5129 17.4526 40.6288 16.3632C41.2507 15.7545 41.3757 15.0562 41.4139 14.2372C40.5303 15.1591 39.6584 16.0442 38.8145 16.9542C37.4516 18.423 36.1078 19.9109 34.7523 21.3884C34.3039 21.878 33.8848 22.3897 33.4056 22.8557C32.9321 23.3174 32.497 23.8246 32.0412 24.3068C31.5957 24.7788 31.6119 24.7935 31.9618 25.3933C32.1485 25.1802 32.3132 24.9758 32.497 24.7891ZM21.1218 16.2838C21.3173 16.0353 21.5114 15.7854 21.707 15.5369C23.0625 13.8138 24.3078 12.0069 25.6972 10.3088C25.7574 10.2338 25.9074 10.1721 25.7942 10.0221C25.259 9.31933 24.7121 8.62833 24.1108 7.92997C23.8388 8.54011 23.5859 9.12379 23.3169 9.70159C23.233 9.87949 23.2669 9.9927 23.4183 10.1C23.6888 10.2926 23.9064 10.5367 24.0858 10.8116C24.1431 10.8998 24.2754 11.0042 24.1343 11.1086C23.9858 11.2189 23.9005 11.0718 23.8329 10.9763C23.6388 10.6984 23.4051 10.4632 23.1287 10.2338C22.8861 10.9307 22.667 11.6114 22.4083 12.276C22.2936 12.5715 22.2392 12.8082 22.5229 13.0272C22.595 13.0816 22.6626 13.1816 22.5803 13.2742C22.4876 13.3786 22.4141 13.2787 22.3406 13.2243C22.2759 13.1772 22.248 13.0802 22.126 13.0831C21.7761 14.1329 21.4261 15.187 21.0748 16.2412C21.0909 16.2559 21.1056 16.2691 21.1218 16.2838ZM39.3497 19.433C38.3088 20.496 37.2767 21.5678 36.221 22.6175C35.0272 23.8055 33.9907 25.1493 32.766 26.3152C32.3955 26.668 32.4073 26.6798 32.6646 27.1311C32.8777 27.5046 32.9086 27.4987 33.1953 27.1576C34.0583 26.1329 34.9184 25.1052 35.8006 24.0981C37.3164 22.3676 38.7645 20.5754 40.4377 18.9861C40.7832 18.6582 41.0331 18.2657 40.9169 17.7011C40.3803 18.2965 39.8863 18.8846 39.3497 19.433ZM32.497 26.1858C33.0909 25.5992 33.6305 24.9626 34.2054 24.3598C35.1448 23.3762 36.0211 22.3382 37.0135 21.3987C38.3088 20.174 39.4894 18.8288 40.717 17.5335C41.0478 17.1851 41.161 16.791 41.0801 16.2779C40.8772 16.4911 40.6802 16.6955 40.4876 16.9028C39.2497 18.2333 38.0485 19.5962 36.7694 20.8856C35.9946 21.6663 35.2213 22.4455 34.4612 23.238C33.7952 23.9305 33.0865 24.5803 32.4279 25.2801C31.9736 25.7653 31.9441 25.7388 32.2103 26.3563C32.2147 26.3652 32.225 26.371 32.2911 26.4357C32.3646 26.3475 32.4234 26.2593 32.497 26.1858Z" fill="white"/>
<mask id="mask13_1_165" style="mask-type:luminance" maskUnits="userSpaceOnUse" x="111" y="0" width="8" height="7">
<path d="M111.723 0.208344H118.617V6.92434H111.723V0.208344Z" fill="white"/>
</mask>
<g mask="url(#mask13_1_165)">
<path d="M115.119 1.99025C115.14 2.17697 115.19 2.35486 115.271 2.52394C115.353 2.69302 115.459 2.84445 115.593 2.97824C115.725 3.11056 115.877 3.21789 116.046 3.29875C116.215 3.37961 116.393 3.43107 116.579 3.45018C117.169 3.50899 117.761 3.53693 118.354 3.53105C117.761 3.52664 117.169 3.55457 116.579 3.61338C116.393 3.63249 116.215 3.68395 116.046 3.76481C115.877 3.84568 115.725 3.953 115.593 4.08532C115.459 4.21911 115.353 4.37055 115.271 4.53962C115.19 4.7087 115.14 4.8866 115.119 5.07332C115.061 5.66288 115.033 6.25391 115.039 6.84788C115.043 6.25391 115.016 5.66288 114.958 5.07332C114.937 4.8866 114.886 4.7087 114.805 4.53962C114.724 4.36908 114.617 4.21911 114.484 4.08532C114.35 3.953 114.201 3.84568 114.031 3.76481C113.861 3.68395 113.683 3.63249 113.496 3.61191C112.907 3.5531 112.316 3.52664 111.723 3.53105C112.316 3.53693 112.907 3.50899 113.496 3.45018C113.683 3.43107 113.861 3.37961 114.031 3.29875C114.201 3.21789 114.35 3.11056 114.484 2.97824C114.617 2.84445 114.724 2.69302 114.805 2.52394C114.886 2.35486 114.937 2.17697 114.958 1.99025C115.016 1.40069 115.043 0.809655 115.039 0.215683C115.033 0.809655 115.061 1.40069 115.119 1.99025Z" fill="#E28B7A"/>
</g>
<mask id="mask14_1_165" style="mask-type:luminance" maskUnits="userSpaceOnUse" x="116" y="3" width="5" height="4">
<path d="M116.735 3.16055H120.474V6.92434H116.735V3.16055Z" fill="white"/>
</mask>
<g mask="url(#mask14_1_165)">
<path d="M118.82 4.42935C118.83 4.52344 118.857 4.61459 118.898 4.69987C118.939 4.78514 118.993 4.86159 119.06 4.92922C119.127 4.99685 119.204 5.04978 119.289 5.09095C119.376 5.13211 119.465 5.15858 119.559 5.16887C119.858 5.19827 120.158 5.21151 120.458 5.21004C120.158 5.2071 119.858 5.22033 119.559 5.24973C119.465 5.26149 119.376 5.28649 119.289 5.32765C119.204 5.36882 119.127 5.42322 119.06 5.48938C118.993 5.55701 118.939 5.63346 118.898 5.71874C118.857 5.80548 118.83 5.89516 118.82 5.98926C118.791 6.28771 118.777 6.58764 118.78 6.88757C118.782 6.58764 118.768 6.28771 118.739 5.98926C118.729 5.89516 118.702 5.80548 118.661 5.71874C118.62 5.63346 118.567 5.55701 118.499 5.48938C118.432 5.42322 118.355 5.36882 118.27 5.32765C118.185 5.28649 118.094 5.26149 118 5.24973C117.701 5.22033 117.401 5.2071 117.101 5.21004C117.401 5.21151 117.701 5.19827 118 5.16887C118.094 5.15858 118.185 5.13211 118.27 5.09095C118.355 5.04978 118.432 4.99685 118.499 4.92922C118.567 4.86159 118.62 4.78514 118.661 4.69987C118.702 4.61459 118.729 4.52344 118.739 4.42935C118.768 4.13089 118.782 3.83243 118.78 3.53104C118.777 3.83243 118.791 4.13089 118.82 4.42935Z" fill="#E28B7A"/>
</g>
<path d="M117.56 1.1184C117.572 1.23749 117.622 1.33894 117.705 1.42421C117.791 1.50801 117.892 1.55653 118.011 1.56976C118.194 1.5874 118.376 1.59623 118.558 1.59476C118.376 1.59329 118.194 1.60211 118.011 1.61975C117.892 1.63298 117.791 1.6815 117.705 1.76677C117.622 1.85058 117.572 1.95202 117.56 2.07111C117.541 2.25342 117.533 2.43573 117.535 2.6195C117.536 2.43573 117.528 2.25342 117.51 2.07111C117.497 1.95202 117.448 1.85058 117.363 1.76677C117.279 1.6815 117.178 1.63298 117.059 1.61975C116.876 1.60211 116.693 1.59329 116.51 1.59476C116.693 1.59623 116.876 1.5874 117.059 1.56976C117.178 1.55653 117.279 1.50801 117.363 1.42421C117.448 1.33894 117.497 1.23749 117.51 1.1184C117.528 0.936094 117.536 0.753786 117.535 0.570007C117.533 0.753786 117.541 0.936094 117.56 1.1184Z" fill="#E28B7A"/>
<path d="M50.5468 15.2124C49.8911 15.2124 49.3059 15.0757 48.7884 14.8007C48.2709 14.5273 47.8651 14.1656 47.571 13.7186C47.2799 13.2687 47.1358 12.7865 47.1358 12.2719C47.1358 11.9426 47.2197 11.7044 47.3887 11.5545C47.5563 11.406 47.7769 11.331 48.0474 11.331C48.6855 11.331 49.0177 11.5986 49.0413 12.1308C49.0677 12.5748 49.2295 12.9159 49.5235 13.1541C49.8205 13.3937 50.1616 13.5128 50.5468 13.5128C50.8761 13.5128 51.1702 13.4408 51.4289 13.2952C51.6906 13.1467 51.8229 12.9276 51.8229 12.6365C51.8229 12.4131 51.7406 12.2249 51.5759 12.072C51.4113 11.9191 51.2172 11.8015 50.9937 11.7191C50.7732 11.6368 50.4674 11.5398 50.0763 11.4251C49.5705 11.2839 49.1207 11.131 48.7296 10.9664C48.337 10.8017 47.968 10.5356 47.624 10.1666C47.2785 9.79459 47.1064 9.31677 47.1064 8.73162C47.1064 8.20234 47.2505 7.72451 47.5416 7.29668C47.8357 6.87031 48.2312 6.53657 48.7296 6.29692C49.2265 6.05875 49.772 5.93819 50.3645 5.93819C50.979 5.93819 51.5377 6.06757 52.0405 6.32633C52.5419 6.58215 52.9359 6.92324 53.2226 7.34961C53.5122 7.77303 53.6578 8.21998 53.6578 8.69045C53.6578 9.26678 53.3432 9.55495 52.7168 9.55495C52.4463 9.55495 52.242 9.49026 52.1052 9.36088C51.9714 9.22856 51.8656 9.0139 51.7877 8.71986C51.7083 8.42287 51.5495 8.16558 51.3113 7.94946C51.0716 7.73039 50.7556 7.62013 50.3645 7.62013C49.9793 7.62013 49.6558 7.72451 49.3941 7.93182C49.1354 8.13618 49.006 8.41258 49.006 8.76102C49.006 9.00508 49.103 9.18298 49.3 9.29619C49.4956 9.41086 49.8719 9.54907 50.4292 9.71373C50.4791 9.7299 50.5409 9.74902 50.6115 9.77254C50.682 9.79312 50.7556 9.81665 50.8349 9.84311C51.3128 9.99307 51.7524 10.1636 52.1523 10.3548C52.5522 10.5474 52.9124 10.8311 53.2344 11.2075C53.5593 11.5809 53.7225 12.0455 53.7225 12.6013C53.7225 13.107 53.5784 13.5584 53.2932 13.9539C53.0109 14.3508 52.6286 14.6596 52.1464 14.8831C51.6642 15.1036 51.1305 15.2124 50.5468 15.2124Z" fill="#1E3F48"/>
<path d="M61.8361 8.62573C62.6712 8.62573 63.2769 8.91978 63.6533 9.50787C64.0326 10.096 64.2238 10.9046 64.2238 11.9308C64.2238 12.4366 64.2194 12.8129 64.212 13.0599L64.2002 14.5066C64.2002 14.7184 64.1208 14.8874 63.965 15.0124C63.8077 15.1388 63.5974 15.2006 63.3357 15.2006C63.0652 15.2006 62.8388 15.1359 62.6594 15.0065C62.483 14.8742 62.3948 14.689 62.3948 14.4537V11.9308C62.3948 11.2369 62.336 10.7429 62.2184 10.4488C62.1008 10.1518 61.9096 10.0019 61.6479 10.0019C61.4597 10.0019 61.2921 10.1577 61.148 10.4665C61.0025 10.7723 60.926 11.228 60.9187 11.8308V14.4537C60.9187 14.936 60.6261 15.1771 60.0424 15.1771C59.7366 15.1771 59.5014 15.1153 59.3367 14.9889C59.1721 14.8595 59.0897 14.6772 59.0897 14.442L59.1015 11.8308C59.1015 11.2192 59.0383 10.7723 58.9133 10.49C58.7869 10.2077 58.5928 10.0666 58.3311 10.0666C58.1664 10.0666 57.9973 10.1827 57.8253 10.4135C57.6563 10.6458 57.5254 10.9825 57.4313 11.425C57.3681 11.6765 57.3372 12.0014 57.3372 12.4013L57.349 13.5951V14.5713C57.349 14.7639 57.2622 14.9154 57.0902 15.0242C56.9167 15.1344 56.708 15.1888 56.461 15.1888C56.2169 15.1888 56.0081 15.1344 55.8317 15.0242C55.6582 14.9154 55.5729 14.7595 55.5729 14.5596V10.59C55.5729 10.39 55.5582 10.243 55.5318 10.1489C55.5083 10.0519 55.4524 9.95776 55.3671 9.8666C55.3553 9.85925 55.3274 9.83426 55.2848 9.79015C55.2407 9.74752 55.2083 9.70488 55.1848 9.66077C55.1642 9.61814 55.1554 9.56962 55.1554 9.51375C55.1554 9.29028 55.2392 9.1065 55.4083 8.96094C55.5803 8.81686 55.77 8.74335 55.9787 8.74335C56.1552 8.74335 56.3463 8.87567 56.5551 9.13737C56.7035 9.32997 56.7785 9.52257 56.7785 9.7137V9.79015C56.9153 9.46964 57.1211 9.20206 57.396 8.99035C57.6695 8.7757 58.0165 8.6669 58.4369 8.6669C58.8515 8.6669 59.1794 8.75364 59.4191 8.92566C59.6616 9.09474 59.8484 9.32997 59.9777 9.63137C60.1689 9.31086 60.4247 9.06386 60.7423 8.89037C61.0598 8.71395 61.4244 8.62573 61.8361 8.62573Z" fill="#1E3F48"/>
<path d="M71.8564 13.748C72.0211 13.7759 72.1475 13.8392 72.2387 13.9362C72.3284 14.0303 72.3739 14.1994 72.3739 14.4419C72.3739 14.6507 72.3181 14.8286 72.2093 14.9771C72.1034 15.1271 71.9579 15.2006 71.7741 15.2006C71.4006 15.2006 71.1125 15.1565 70.9096 15.0653C70.7096 14.9712 70.5273 14.8036 70.3627 14.5596C70.1701 14.8463 69.9069 15.0477 69.5746 15.1653C69.2453 15.2829 68.8586 15.3417 68.4161 15.3417C67.431 15.3417 66.6827 15.0594 66.1696 14.4949C65.655 13.9303 65.3992 13.1423 65.3992 12.1307C65.3992 11.4691 65.5344 10.8811 65.805 10.3665C66.0755 9.85337 66.4519 9.45346 66.9341 9.16677C67.4163 8.87714 67.9706 8.73158 68.5984 8.73158C68.9115 8.73158 69.2041 8.79333 69.4746 8.91389C69.7452 9.03592 69.951 9.19617 70.0921 9.39613L70.1157 9.23146C70.1304 9.10649 70.1995 9.0021 70.3215 8.91977C70.4465 8.83744 70.6391 8.79627 70.8978 8.79627C71.1757 8.79627 71.3801 8.85361 71.5094 8.96682C71.6418 9.0815 71.7094 9.22411 71.7094 9.39613C71.7094 9.45935 71.705 9.50786 71.6976 9.54315C71.6462 9.83719 71.5932 10.3341 71.5388 11.031C71.5153 11.353 71.5036 11.7661 71.5036 12.2719V12.9247C71.5036 13.1805 71.5241 13.376 71.5682 13.5128C71.6109 13.6466 71.7064 13.7245 71.8564 13.748ZM69.6687 12.8482C69.6805 12.4924 69.6864 11.9396 69.6864 11.1898C69.6864 10.8928 69.5878 10.6517 69.3923 10.4665C69.1953 10.2783 68.9454 10.1842 68.6396 10.1842C68.247 10.1842 67.9236 10.365 67.6692 10.7252C67.4178 11.0869 67.2928 11.5515 67.2928 12.119C67.2928 12.6571 67.406 13.0879 67.6339 13.4128C67.8603 13.7348 68.1647 13.895 68.5455 13.895C68.9013 13.895 69.1762 13.8068 69.3688 13.6304C69.5599 13.451 69.6599 13.1893 69.6687 12.8482Z" fill="#1E3F48"/>
<path d="M77.3022 8.41991C77.6506 8.41991 77.9726 8.50077 78.2666 8.66103C78.5636 8.82275 78.7989 9.05211 78.9723 9.34909C79.1488 9.64314 79.237 9.98717 79.237 10.3783C79.237 10.9472 79.0503 11.3868 78.6783 11.6956C78.3093 12.0014 77.8329 12.1543 77.2492 12.1543C76.9434 12.1543 76.7288 12.1102 76.6082 12.019C76.4862 11.9293 76.4259 11.775 76.4259 11.5544C76.4259 11.3471 76.4686 11.2016 76.5553 11.1192C76.6406 11.0369 76.7626 10.9869 76.9199 10.9663C77.433 10.9164 77.6903 10.7017 77.6903 10.3253C77.6903 10.1695 77.6521 10.0489 77.5786 9.96659C77.508 9.88426 77.4051 9.84309 77.2728 9.84309C77.0375 9.84309 76.8199 9.97688 76.62 10.243C76.42 10.5106 76.2554 10.8193 76.126 11.1722C75.9966 11.525 75.9143 11.8235 75.879 12.0661C75.8158 12.4469 75.7849 13.1246 75.7849 14.1009C75.7849 14.5713 75.7158 14.8933 75.5791 15.0653C75.4453 15.2329 75.21 15.3182 74.8734 15.3182C74.5587 15.3182 74.3205 15.2565 74.1559 15.1359C73.9942 15.0154 73.9104 14.8272 73.903 14.5713V12.4542C73.903 11.8985 73.8883 11.4251 73.8618 11.0369C73.8383 10.6488 73.7942 10.1518 73.7325 9.54316L73.6795 9.008C73.6634 8.78894 73.7354 8.61104 73.8971 8.47284C74.0574 8.33169 74.2809 8.26112 74.5675 8.26112C75.0571 8.26112 75.3203 8.47872 75.3556 8.9139C75.3703 9.12562 75.3879 9.4226 75.4085 9.80192C75.5805 9.39467 75.8261 9.06387 76.1436 8.80805C76.4612 8.54929 76.8464 8.41991 77.3022 8.41991Z" fill="#1E3F48"/>
<path d="M84.2911 12.6013C84.5763 12.6013 84.7851 12.6586 84.9145 12.7718C85.0468 12.8865 85.1144 13.0688 85.1144 13.3187C85.1144 13.8951 84.9292 14.3582 84.5616 14.7066C84.197 15.0521 83.7354 15.2241 83.1796 15.2241C82.4225 15.2241 81.8697 14.9183 81.5212 14.3067C81.1713 13.6922 80.9978 12.7174 80.9978 11.3839C80.9978 10.984 81.0007 10.6929 81.0096 10.5076C80.9508 10.5003 80.8508 10.4959 80.7096 10.4959C80.2112 10.4885 79.9628 10.2489 79.9628 9.77842C79.9628 9.53583 80.0245 9.35352 80.151 9.23149C80.2803 9.10652 80.5053 9.04918 80.8273 9.06094L81.1154 9.07271C81.1772 8.53166 81.2772 7.87006 81.4154 7.08496C81.4506 6.87766 81.5477 6.71887 81.7094 6.6086C81.8697 6.49981 82.077 6.44394 82.3328 6.44394C82.6268 6.44394 82.8562 6.51451 83.0208 6.65565C83.1884 6.79385 83.2737 6.96146 83.2737 7.16141L83.2561 7.26727L83.1914 7.68481C83.0885 8.40228 83.0208 8.8904 82.9856 9.14916C83.2796 9.16974 83.5045 9.17856 83.6619 9.17856C84.1088 9.18738 84.3323 9.41674 84.3323 9.86663C84.3323 10.0945 84.2691 10.2651 84.1441 10.3783C84.0221 10.4929 83.8177 10.5488 83.5325 10.5488H82.8797C82.8709 10.7223 82.8679 11.0002 82.8679 11.3839C82.8679 12.0308 82.8812 12.5277 82.9091 12.8718C82.94 13.2129 82.9856 13.4452 83.0444 13.5657C83.1061 13.6878 83.187 13.748 83.2855 13.748C83.406 13.748 83.4854 13.7098 83.5207 13.6304C83.556 13.5525 83.5736 13.4128 83.5736 13.2129C83.5736 12.8056 83.8118 12.6013 84.2911 12.6013Z" fill="#1E3F48"/>
<path d="M93.8026 10.9958C94.1157 10.9958 94.3613 11.0781 94.5377 11.2428C94.717 11.4074 94.8082 11.6294 94.8082 11.9073C94.8082 12.5424 94.6318 13.1158 94.2789 13.6245C93.9261 14.1347 93.4394 14.5346 92.8205 14.8242C92.2044 15.1109 91.5119 15.2535 90.7445 15.2535C89.8388 15.2535 89.039 15.0742 88.3451 14.7125C87.6541 14.3479 87.1174 13.8333 86.7337 13.1658C86.3485 12.4998 86.1574 11.7309 86.1574 10.8605C86.1574 9.94013 86.3367 9.09916 86.6984 8.33758C87.063 7.57306 87.557 6.97174 88.1804 6.53214C88.8067 6.0896 89.5007 5.8676 90.2623 5.8676C91.262 5.8676 92.0324 6.10284 92.5735 6.57331V6.50862C92.5735 6.34395 92.6558 6.20134 92.8205 6.07931C92.9881 5.95875 93.1983 5.897 93.4497 5.897C93.7467 5.897 93.979 5.97052 94.1437 6.1146C94.3083 6.25574 94.3907 6.46157 94.3907 6.73209L94.3789 7.98473C94.3583 8.75366 94.0452 9.13739 93.4379 9.13739C93.2968 9.13739 93.1571 9.11239 93.0204 9.06093C92.8866 9.00654 92.7866 8.93155 92.7205 8.83746C92.4926 8.53165 92.3088 8.30083 92.1677 8.14351C92.0295 7.98767 91.8472 7.85241 91.6207 7.73773C91.3929 7.62452 91.115 7.56718 90.7857 7.56718C90.3387 7.56718 89.9035 7.71715 89.4801 8.01413C89.0596 8.30818 88.717 8.70661 88.4509 9.20796C88.1834 9.71078 88.051 10.2577 88.051 10.8487C88.051 11.3707 88.1701 11.8367 88.4098 12.2484C88.6524 12.6571 88.9802 12.9762 89.3919 13.207C89.8065 13.4393 90.2578 13.554 90.7445 13.554C91.1209 13.554 91.4693 13.4863 91.7913 13.3481C92.1118 13.207 92.3706 13.01 92.5676 12.7541C92.7631 12.4954 92.8616 12.2058 92.8616 11.8838C92.8616 11.6221 92.944 11.4074 93.1086 11.2428C93.2733 11.0781 93.5041 10.9958 93.8026 10.9958Z" fill="#1E3F48"/>
<path d="M95.9806 14.3126C95.9806 14.0862 96.0247 13.8862 96.1159 13.7127C96.2099 13.5363 96.3599 13.4525 96.5687 13.4599H96.7039C96.7819 12.4689 96.8216 11.3765 96.8216 10.1842L96.8039 8.0259L96.7392 8.03766C96.6098 8.07295 96.4937 8.02884 96.3923 7.9024C96.2937 7.77743 96.2452 7.626 96.2452 7.44957C96.2452 7.20698 96.3158 7.00556 96.4569 6.84383C96.601 6.68358 96.8348 6.53803 97.1568 6.40865C97.5332 6.2528 97.9345 6.13665 98.3624 6.06167C98.7887 5.98816 99.1989 5.94994 99.5915 5.94994C100.321 5.94994 100.969 6.05285 101.538 6.25574C102.11 6.46011 102.555 6.75562 102.873 7.14376C103.194 7.5319 103.355 7.99355 103.355 8.52578C103.355 8.99625 103.199 9.44026 102.891 9.85486C102.58 10.2665 102.109 10.537 101.473 10.6664C102.1 10.8311 102.551 11.0899 102.826 11.4427C103.099 11.7956 103.238 12.194 103.238 12.6365C103.238 13.1982 103.086 13.6745 102.785 14.0656C102.482 14.4581 102.075 14.7537 101.562 14.9536C101.047 15.1536 100.474 15.2535 99.8385 15.2535C99.4533 15.2535 98.9652 15.2315 98.3741 15.1888C98.2168 15.4829 97.8992 15.6299 97.4214 15.6299C97.0215 15.6299 96.751 15.4682 96.6098 15.1477H96.5452C96.3526 15.1477 96.2099 15.0698 96.1159 14.9124C96.0247 14.7566 95.9806 14.5567 95.9806 14.3126ZM98.5447 13.5951C98.8814 13.6186 99.2386 13.6304 99.615 13.6304C100.147 13.6304 100.571 13.5407 100.885 13.3599C101.198 13.1761 101.356 12.8879 101.356 12.4954C101.356 12.069 101.209 11.7706 100.915 11.6015C100.624 11.4339 100.291 11.3486 99.9149 11.3486C99.5738 11.3486 99.3283 11.3045 99.1798 11.2134C99.0343 11.1193 98.9622 10.9237 98.9622 10.6253C98.9622 10.3474 99.0416 10.1518 99.2033 10.0372C99.3636 9.92396 99.5929 9.86662 99.8914 9.86662C100.946 9.86662 101.473 9.47113 101.473 8.67868C101.473 8.30671 101.31 8.01855 100.985 7.81418C100.663 7.60688 100.181 7.5025 99.5385 7.5025C99.3033 7.5025 99.0181 7.54219 98.6858 7.62011C98.7049 8.29054 98.7152 9.14621 98.7152 10.1842C98.7152 10.7488 98.7035 11.2398 98.6799 11.6544C98.6593 12.0661 98.6152 12.713 98.5447 13.5951Z" fill="#1E3F48"/>
<path d="M112.302 10.9958C112.615 10.9958 112.861 11.0781 113.037 11.2428C113.216 11.4074 113.307 11.6294 113.307 11.9073C113.307 12.5424 113.131 13.1158 112.778 13.6245C112.425 14.1347 111.939 14.5346 111.32 14.8242C110.704 15.1109 110.011 15.2535 109.244 15.2535C108.338 15.2535 107.538 15.0742 106.844 14.7125C106.153 14.3479 105.617 13.8333 105.233 13.1658C104.848 12.4998 104.657 11.7309 104.657 10.8605C104.657 9.94013 104.836 9.09916 105.198 8.33758C105.562 7.57306 106.056 6.97174 106.68 6.53214C107.306 6.0896 108 5.8676 108.762 5.8676C109.761 5.8676 110.532 6.10284 111.073 6.57331V6.50862C111.073 6.34395 111.155 6.20134 111.32 6.07931C111.487 5.95875 111.698 5.897 111.949 5.897C112.246 5.897 112.478 5.97052 112.643 6.1146C112.808 6.25574 112.89 6.46157 112.89 6.73209L112.878 7.98473C112.858 8.75366 112.544 9.13739 111.937 9.13739C111.796 9.13739 111.656 9.11239 111.52 9.06093C111.386 9.00654 111.286 8.93155 111.22 8.83746C110.992 8.53165 110.808 8.30083 110.667 8.14351C110.529 7.98767 110.346 7.85241 110.12 7.73773C109.892 7.62452 109.614 7.56718 109.285 7.56718C108.838 7.56718 108.403 7.71715 107.979 8.01413C107.559 8.30818 107.216 8.70661 106.95 9.20796C106.683 9.71078 106.55 10.2577 106.55 10.8487C106.55 11.3707 106.669 11.8367 106.909 12.2484C107.152 12.6571 107.479 12.9762 107.891 13.207C108.306 13.4393 108.757 13.554 109.244 13.554C109.62 13.554 109.969 13.4863 110.291 13.3481C110.611 13.207 110.87 13.01 111.067 12.7541C111.262 12.4954 111.361 12.2058 111.361 11.8838C111.361 11.6221 111.443 11.4074 111.608 11.2428C111.773 11.0781 112.003 10.9958 112.302 10.9958Z" fill="#1E3F48"/>
<path d="M51.453 19.4431C51.5191 19.4431 51.5779 19.4696 51.6294 19.5196C51.6794 19.571 51.7058 19.6313 51.7058 19.7019C51.7058 19.7768 51.6779 19.8371 51.6235 19.8842C51.353 20.1003 51.0075 20.3414 50.5885 20.6075C50.4473 20.6987 50.3385 20.7692 50.265 20.8192C50.1974 20.8633 49.9313 21.0354 49.4652 21.3368C49.2329 21.4867 49.083 21.5823 49.0124 21.6249L49.3241 21.9072C49.5711 22.1424 49.8431 22.388 50.1415 22.6423C50.3915 22.8584 50.6002 23.029 50.7649 23.154C50.9296 23.2804 51.1619 23.4509 51.4647 23.6656C51.5309 23.7126 51.5647 23.7832 51.5647 23.8773C51.5647 23.9523 51.5382 24.0126 51.4883 24.0596C51.4412 24.1037 51.3839 24.1243 51.3177 24.1243C51.2545 24.1243 51.206 24.1096 51.1707 24.0773C50.6208 23.6538 50.1798 23.3054 49.8475 23.0305C49.4902 22.7291 49.1418 22.4056 48.8007 22.0601C48.8007 22.2248 48.7948 22.4571 48.783 22.7541C48.7742 23.2216 48.7713 23.5936 48.7713 23.8714C48.7713 23.9508 48.7478 24.0111 48.7007 24.0537C48.6537 24.0978 48.5904 24.1184 48.5125 24.1184C48.339 24.1184 48.2538 24.017 48.2538 23.8126C48.2538 23.6127 48.2567 23.2877 48.2655 22.8364C48.2802 22.4527 48.289 22.0278 48.289 21.5602C48.289 21.1412 48.2861 20.8354 48.2832 20.6428L48.2714 19.6431C48.2714 19.5813 48.2964 19.5284 48.3478 19.4843C48.3978 19.4372 48.4611 19.4137 48.536 19.4137C48.6184 19.4137 48.6831 19.4372 48.7301 19.4843C48.7772 19.5313 48.8007 19.5901 48.8007 19.6607L48.8066 21.2309C49.1506 21.0001 49.5299 20.7428 49.9416 20.4605L50.0945 20.3605C50.6355 19.9841 51.0325 19.6989 51.2883 19.5019C51.3383 19.4637 51.3942 19.4431 51.453 19.4431Z" fill="#E28B7A"/>
<path d="M52.959 20.3076C52.8443 20.3076 52.7472 20.2694 52.6649 20.19C52.5826 20.1121 52.5414 20.0121 52.5414 19.89C52.5414 19.7695 52.5826 19.6695 52.6649 19.5901C52.7472 19.5122 52.8502 19.4725 52.9766 19.4725C53.0972 19.4725 53.1971 19.5122 53.2765 19.5901C53.3544 19.6651 53.3941 19.7636 53.3941 19.8842C53.3941 20.0062 53.35 20.1076 53.2648 20.19C53.1824 20.2694 53.0795 20.3076 52.959 20.3076ZM52.859 24.0773C52.7796 24.0773 52.7178 24.0581 52.6708 24.0184C52.6237 23.9802 52.6002 23.9244 52.6002 23.8538L52.6649 20.9957C52.6649 20.9177 52.6884 20.8589 52.7355 20.8192C52.7825 20.781 52.8472 20.7604 52.9296 20.7604C53.0075 20.7604 53.0707 20.781 53.1177 20.8192C53.1648 20.8589 53.1883 20.9192 53.1883 21.0015L53.1236 23.8538C53.1192 23.9288 53.0942 23.9861 53.0472 24.0243C53.0001 24.0596 52.9369 24.0773 52.859 24.0773Z" fill="#E28B7A"/>
<path d="M55.9959 24.1478C55.6813 24.1478 55.3931 24.0861 55.1314 23.9596C54.8726 23.8303 54.6639 23.6362 54.508 23.3774C54.3507 23.1187 54.2728 22.7952 54.2728 22.4071C54.2728 22.0586 54.3448 21.7572 54.4904 21.5014C54.6345 21.2427 54.8388 21.0456 55.102 20.9074C55.3637 20.7707 55.6695 20.7016 56.0194 20.7016C56.2694 20.7016 56.4899 20.7398 56.6781 20.8133C56.8692 20.8883 57.0221 20.9839 57.1368 21.1015V20.9604C57.1515 20.2547 57.1662 19.7416 57.178 19.4196C57.1897 19.0947 57.2103 18.7712 57.2427 18.4492C57.2544 18.3875 57.2809 18.336 57.325 18.2963C57.3676 18.2537 57.4264 18.2316 57.5014 18.2316C57.5793 18.2316 57.644 18.2537 57.6955 18.2963C57.7455 18.3404 57.7675 18.3948 57.7602 18.461C57.7278 18.7903 57.6984 19.3549 57.672 20.1547C57.6484 20.9516 57.6367 21.6705 57.6367 22.313C57.6367 22.9687 57.6514 23.3451 57.6837 23.4421C57.7102 23.545 57.7425 23.6288 57.7778 23.695C57.816 23.7582 57.8572 23.7891 57.9013 23.7891C57.916 23.7891 57.9248 23.8126 57.9248 23.8597C57.9248 23.9302 57.8954 23.9935 57.8366 24.0479C57.7778 24.0993 57.7131 24.1243 57.6426 24.1243C57.5911 24.1243 57.5485 24.1125 57.5132 24.089C57.45 24.0537 57.3853 23.9949 57.3191 23.9126C57.2559 23.8303 57.2133 23.7156 57.1897 23.5656C57.0751 23.7465 56.9133 23.8891 56.7016 23.9949C56.4928 24.0978 56.2576 24.1478 55.9959 24.1478ZM55.9841 23.6891C56.1753 23.6891 56.3576 23.6479 56.5311 23.5656C56.7031 23.4803 56.8428 23.3657 56.9486 23.2245C57.0574 23.0834 57.1133 22.9305 57.1133 22.7658C57.1133 22.5659 57.1162 22.41 57.125 22.2953L57.1309 21.7367C57.0515 21.5926 56.9104 21.4588 56.7075 21.3368C56.5075 21.2162 56.2782 21.1544 56.0194 21.1544C55.646 21.1544 55.3461 21.2691 55.1196 21.4955C54.8962 21.719 54.7844 22.0307 54.7844 22.4306C54.7844 22.7173 54.8432 22.954 54.9609 23.1422C55.0814 23.3304 55.2343 23.4701 55.4196 23.5597C55.6034 23.6465 55.7915 23.6891 55.9841 23.6891Z" fill="#E28B7A"/>
<path d="M59.8126 24.1537C59.5068 24.1537 59.2451 24.0802 59.0304 23.9302C58.8143 23.7773 58.6452 23.5833 58.5247 23.348C58.4923 23.2863 58.4776 23.2451 58.4776 23.2245C58.4776 23.1628 58.5041 23.1069 58.56 23.0599C58.6144 23.0128 58.6776 22.9893 58.7482 22.9893C58.7908 22.9893 58.8246 23.0011 58.8481 23.0246C58.8746 23.0481 58.9099 23.0922 58.954 23.154C59.0672 23.3275 59.1863 23.4642 59.3127 23.5656C59.4377 23.6641 59.6038 23.7126 59.8126 23.7126C60.0037 23.7126 60.1625 23.6656 60.289 23.5715C60.4183 23.4774 60.483 23.3598 60.483 23.2187C60.483 23.1128 60.4477 23.0246 60.3772 22.954C60.3095 22.8834 60.2257 22.8276 60.1243 22.7835C60.0214 22.7364 59.8773 22.6806 59.6891 22.6129C59.4495 22.5276 59.2569 22.4483 59.1128 22.3777C58.9672 22.3071 58.8422 22.2101 58.7364 22.0836C58.6335 21.9543 58.5835 21.7925 58.5835 21.5955C58.5835 21.4191 58.6305 21.2574 58.7246 21.1074C58.8217 20.9545 58.9613 20.8339 59.1422 20.7428C59.3215 20.6531 59.5303 20.6075 59.7656 20.6075C59.9964 20.6075 60.2022 20.6531 60.383 20.7428C60.5624 20.8339 60.7021 20.953 60.8006 21.1015C60.8976 21.2515 60.9476 21.4162 60.9476 21.5955C60.9476 21.6867 60.93 21.7514 60.8947 21.7896C60.8623 21.8293 60.8035 21.8484 60.7183 21.8484C60.6271 21.8484 60.5668 21.8337 60.5359 21.8014C60.508 21.7661 60.4918 21.722 60.4889 21.6661C60.4727 21.4544 60.3977 21.3 60.2654 21.2015C60.136 21.1001 59.9684 21.0486 59.7656 21.0486C59.5215 21.0486 59.3495 21.1059 59.248 21.2191C59.1451 21.3338 59.0951 21.4544 59.0951 21.5838C59.0951 21.7367 59.1613 21.8572 59.2951 21.9425C59.4274 22.0248 59.6332 22.116 59.9126 22.213C60.1478 22.2998 60.3375 22.3777 60.483 22.4483C60.6271 22.5188 60.7491 22.6173 60.8476 22.7423C60.9491 22.8687 61.0005 23.0275 61.0005 23.2187C61.0005 23.5098 60.8844 23.7391 60.6536 23.9067C60.4257 24.0714 60.1449 24.1537 59.8126 24.1537Z" fill="#E28B7A"/>
<path d="M63.876 23.8714C63.876 23.7979 63.8952 23.7362 63.9348 23.6891C63.9731 23.6421 64.0319 23.6215 64.1113 23.6244H64.2054C64.2671 23.0011 64.2995 22.3101 64.2995 21.5485C64.2995 20.9339 64.2951 20.4458 64.2877 20.0841L64.2112 20.1077C64.1598 20.1165 64.1142 20.1047 64.076 20.0724C64.0363 20.0415 64.0172 19.993 64.0172 19.9254C64.0172 19.8518 64.0407 19.7901 64.0878 19.743C64.1348 19.696 64.2171 19.6489 64.3347 19.6019C64.7141 19.4372 65.1316 19.3549 65.5874 19.3549C65.9241 19.3549 66.2299 19.4078 66.5048 19.5137C66.7783 19.6166 66.9944 19.7651 67.1517 19.9606C67.312 20.1576 67.3928 20.3885 67.3928 20.6546C67.3928 20.9339 67.2781 21.1721 67.0517 21.3721C66.8238 21.5691 66.5313 21.6926 66.1755 21.7426C66.5283 21.8014 66.8062 21.9366 67.0106 22.1483C67.2179 22.3601 67.3223 22.5997 67.3223 22.8658C67.3223 23.1481 67.2399 23.3877 67.0753 23.5833C66.9106 23.7803 66.6886 23.9244 66.4107 24.0185C66.1314 24.1096 65.8285 24.1449 65.4992 24.1302L65.0287 24.1126L64.6758 24.1067C64.6435 24.2155 64.5656 24.2713 64.4406 24.2713C64.2951 24.2713 64.2068 24.2081 64.176 24.0832L64.0878 24.0773C63.9466 24.0699 63.876 24.0008 63.876 23.8714ZM64.7111 23.6539C65.0522 23.6627 65.3066 23.6656 65.4756 23.6656C65.9182 23.6656 66.2519 23.6039 66.4754 23.4774C66.6989 23.3525 66.8106 23.1481 66.8106 22.8658C66.8106 22.5527 66.6812 22.3292 66.4225 22.1954C66.1637 22.0631 65.7962 21.9866 65.3227 21.966C65.2242 21.9587 65.1478 21.941 65.0934 21.9131C65.0375 21.8866 65.0111 21.8249 65.0111 21.7308C65.0111 21.6338 65.0375 21.5691 65.0934 21.5367C65.1478 21.5058 65.2198 21.4882 65.311 21.4838C65.608 21.4691 65.8608 21.4426 66.0696 21.4073C66.2813 21.3691 66.4666 21.2927 66.6283 21.178C66.793 21.0604 66.8753 20.8869 66.8753 20.6546C66.8753 20.3767 66.7592 20.1665 66.5283 20.0253C66.296 19.8812 65.9829 19.8077 65.5874 19.8077C65.4698 19.8077 65.336 19.818 65.1875 19.8371C65.0419 19.8533 64.914 19.8768 64.8052 19.9077C64.817 20.3282 64.8229 20.8707 64.8229 21.5367C64.8229 22.2468 64.7846 22.9526 64.7111 23.6539Z" fill="#E28B7A"/>
<path d="M69.7753 24.1243C69.2695 24.1243 68.8475 23.992 68.5109 23.7244C68.1771 23.4539 68.011 23.0304 68.011 22.4541C68.011 22.0983 68.0786 21.7837 68.2168 21.5132C68.3535 21.2397 68.552 21.0251 68.8108 20.8721C69.0725 20.7192 69.3812 20.6428 69.7341 20.6428C70.0752 20.6428 70.381 20.7134 70.6515 20.8545C70.925 20.9956 71.1396 21.2044 71.2925 21.4779C71.4484 21.7484 71.5278 22.0719 71.5278 22.4482C71.5278 22.9981 71.366 23.4156 71.0455 23.7009C70.7236 23.9831 70.3001 24.1243 69.7753 24.1243ZM69.7635 23.7009C70.1237 23.7009 70.4222 23.595 70.6574 23.3833C70.8926 23.1686 71.0103 22.854 71.0103 22.4424C71.0103 22.1718 70.9573 21.9337 70.8515 21.7249C70.7456 21.5176 70.5956 21.3573 70.4045 21.2426C70.2163 21.125 69.9987 21.0662 69.7517 21.0662C69.3827 21.0662 69.0872 21.1941 68.8637 21.4485C68.6402 21.6999 68.5285 22.0307 68.5285 22.4424C68.5285 22.8775 68.6476 23.198 68.8872 23.4009C69.1254 23.6009 69.418 23.7009 69.7635 23.7009Z" fill="#E28B7A"/>
<path d="M73.7687 24.1243C73.2629 24.1243 72.841 23.992 72.5043 23.7244C72.1706 23.4539 72.0044 23.0304 72.0044 22.4541C72.0044 22.0983 72.0721 21.7837 72.2103 21.5132C72.347 21.2397 72.5455 21.0251 72.8042 20.8721C73.0659 20.7192 73.3747 20.6428 73.7275 20.6428C74.0686 20.6428 74.3744 20.7134 74.645 20.8545C74.9184 20.9956 75.1331 21.2044 75.286 21.4779C75.4418 21.7484 75.5212 22.0719 75.5212 22.4482C75.5212 22.9981 75.3595 23.4156 75.039 23.7009C74.717 23.9831 74.2936 24.1243 73.7687 24.1243ZM73.7569 23.7009C74.1171 23.7009 74.4156 23.595 74.6508 23.3833C74.8861 23.1686 75.0037 22.854 75.0037 22.4424C75.0037 22.1718 74.9508 21.9337 74.8449 21.7249C74.739 21.5176 74.5891 21.3573 74.398 21.2426C74.2098 21.125 73.9922 21.0662 73.7452 21.0662C73.3761 21.0662 73.0806 21.1941 72.8572 21.4485C72.6337 21.6999 72.5219 22.0307 72.5219 22.4424C72.5219 22.8775 72.641 23.198 72.8807 23.4009C73.1189 23.6009 73.4114 23.7009 73.7569 23.7009Z" fill="#E28B7A"/>
<path d="M76.6447 24.1537C76.5742 24.1537 76.5124 24.1361 76.4624 24.1008C76.4154 24.0626 76.3918 24.017 76.3918 23.9655V19.202C76.3918 19.1314 76.4124 19.077 76.4565 19.0373C76.5036 18.9947 76.5653 18.9726 76.6447 18.9726C76.7271 18.9726 76.7917 18.9932 76.8388 19.0314C76.8858 19.0711 76.9094 19.1285 76.9094 19.202L76.8976 21.5838L77.3857 21.3132C78.0635 20.9295 78.5119 20.6707 78.7324 20.5369C78.7986 20.4987 78.8501 20.4781 78.8854 20.4781C78.9471 20.4781 79.003 20.512 79.05 20.5781C79.1 20.6413 79.1265 20.7104 79.1265 20.7839C79.1265 20.8354 79.075 20.8898 78.9736 20.9486L76.9035 22.1777L79.003 23.6715C79.0456 23.7112 79.0677 23.7626 79.0677 23.8244C79.0677 23.892 79.0397 23.9523 78.9853 24.0067C78.9295 24.0626 78.8736 24.089 78.8148 24.089C78.7589 24.089 78.6913 24.0655 78.6089 24.0184L77.9209 23.5303C77.5916 23.2922 77.2519 23.0525 76.9035 22.8129L76.8976 23.9596C76.8976 24.0155 76.8711 24.0626 76.8212 24.1008C76.7741 24.1361 76.7153 24.1537 76.6447 24.1537Z" fill="#E28B7A"/>
<path d="M83.4519 24.1126C83.1255 24.1126 82.8461 24.0464 82.6109 23.9126C82.3786 23.7803 82.2022 23.6039 82.0816 23.3833C81.964 23.1599 81.9052 22.9187 81.9052 22.66C81.9052 22.5776 81.9228 22.5159 81.9581 22.4718C81.9963 22.4247 82.0654 22.4012 82.164 22.4012C82.336 22.4012 82.4227 22.4762 82.4227 22.6247C82.4227 22.8364 82.4698 23.0187 82.5639 23.1716C82.658 23.3216 82.7829 23.4363 82.9402 23.5186C83.0961 23.6009 83.2666 23.6421 83.4519 23.6421C83.7224 23.6421 83.9429 23.5803 84.1164 23.4539C84.2884 23.3289 84.3752 23.1466 84.3752 22.907C84.3752 22.7305 84.3281 22.5865 84.234 22.4718C84.1399 22.3586 84.0164 22.266 83.8635 22.1954C83.7106 22.1248 83.5166 22.0542 83.2813 21.9837C83.0226 21.9131 82.802 21.8396 82.6227 21.7602C82.4462 21.6823 82.2786 21.5544 82.1228 21.3779C81.9699 21.2015 81.8934 20.9707 81.8934 20.684C81.8934 20.4296 81.9596 20.2018 82.0934 20.0018C82.2257 19.7989 82.4051 19.6401 82.6285 19.5255C82.855 19.4122 83.1049 19.3549 83.3754 19.3549C83.6533 19.3549 83.9047 19.4167 84.1282 19.5372C84.3546 19.6592 84.534 19.8195 84.6633 20.0194C84.7927 20.2165 84.8574 20.4238 84.8574 20.6428C84.8574 20.7413 84.8368 20.8119 84.7986 20.8545C84.7589 20.8942 84.6942 20.9133 84.6045 20.9133C84.5016 20.9133 84.431 20.8942 84.3928 20.8545C84.3575 20.8119 84.3399 20.7546 84.3399 20.684C84.3399 20.4458 84.2487 20.2429 84.0694 20.0783C83.8929 19.9136 83.6606 19.8313 83.3754 19.8313C83.0843 19.8313 82.852 19.9136 82.6756 20.0783C82.4992 20.24 82.411 20.4429 82.411 20.6899C82.411 20.8589 82.458 20.9957 82.5521 21.1015C82.6491 21.2045 82.7712 21.2838 82.9167 21.3427C83.0652 21.4015 83.2725 21.472 83.5401 21.5544C83.7709 21.6249 83.9782 21.7058 84.1635 21.7955C84.3517 21.8822 84.5178 22.0175 84.6633 22.2013C84.8118 22.3865 84.8868 22.6188 84.8868 22.9011C84.8868 23.1452 84.8236 23.3583 84.6986 23.5421C84.5766 23.723 84.4061 23.8641 84.187 23.9655C83.9709 24.064 83.7253 24.1126 83.4519 24.1126Z" fill="#E28B7A"/>
<path d="M87.6784 23.0187C87.7564 23.0187 87.8108 23.0393 87.8431 23.0775C87.8784 23.1172 87.896 23.1863 87.896 23.2833C87.896 23.5186 87.8166 23.7171 87.6608 23.8773C87.5079 24.039 87.3109 24.1184 87.0727 24.1184C86.7346 24.1184 86.492 23.9714 86.3435 23.6774C86.1979 23.3804 86.1259 22.9187 86.1259 22.2953C86.1259 22.0601 86.1376 21.7925 86.1612 21.4897C86.1097 21.4867 85.97 21.4764 85.7436 21.4603C85.6098 21.4456 85.5437 21.3706 85.5437 21.2368C85.5437 21.1045 85.6084 21.0368 85.7377 21.0368C85.773 21.0368 85.8495 21.0412 85.9671 21.0486C86.0641 21.0574 86.1406 21.0604 86.1965 21.0604C86.2273 20.7281 86.2803 20.3105 86.3552 19.8077C86.3626 19.7416 86.3861 19.693 86.4258 19.6607C86.464 19.6254 86.5273 19.6078 86.614 19.6078C86.6963 19.6078 86.7625 19.6313 86.8139 19.6783C86.8639 19.7225 86.8845 19.7768 86.8728 19.843L86.8434 20.0665C86.7728 20.5884 86.7287 20.9295 86.714 21.0898L87.2491 21.1015C87.3197 21.1015 87.3697 21.1162 87.402 21.1427C87.4373 21.1706 87.455 21.2177 87.455 21.2838C87.455 21.3706 87.4373 21.4294 87.402 21.4603C87.3697 21.4882 87.3079 21.5044 87.2138 21.5073C87.0727 21.5117 86.8919 21.5132 86.6728 21.5132C86.6493 21.7955 86.6375 22.0572 86.6375 22.2953C86.6375 22.7305 86.6728 23.0716 86.7434 23.3186C86.8139 23.5656 86.9404 23.6891 87.1256 23.6891C87.2227 23.6891 87.3021 23.6524 87.3609 23.5774C87.4197 23.4995 87.452 23.3833 87.4608 23.2304C87.4638 23.1598 87.4785 23.1069 87.502 23.0716C87.5285 23.0363 87.5873 23.0187 87.6784 23.0187Z" fill="#E28B7A"/>
<path d="M90.2475 24.1243C89.7418 24.1243 89.3198 23.992 88.9831 23.7244C88.6494 23.4539 88.4832 23.0304 88.4832 22.4541C88.4832 22.0983 88.5509 21.7837 88.6891 21.5132C88.8258 21.2397 89.0243 21.0251 89.283 20.8721C89.5448 20.7192 89.8535 20.6428 90.2064 20.6428C90.5474 20.6428 90.8533 20.7134 91.1238 20.8545C91.3972 20.9956 91.6119 21.2044 91.7648 21.4779C91.9206 21.7484 92 22.0719 92 22.4482C92 22.9981 91.8383 23.4156 91.5178 23.7009C91.1958 23.9831 90.7724 24.1243 90.2475 24.1243ZM90.2358 23.7009C90.596 23.7009 90.8944 23.595 91.1297 23.3833C91.3649 23.1686 91.4825 22.854 91.4825 22.4424C91.4825 22.1718 91.4296 21.9337 91.3237 21.7249C91.2179 21.5176 91.0679 21.3573 90.8768 21.2426C90.6886 21.125 90.471 21.0662 90.224 21.0662C89.855 21.0662 89.5595 21.1941 89.336 21.4485C89.1125 21.6999 89.0008 22.0307 89.0008 22.4424C89.0008 22.8775 89.1199 23.198 89.3595 23.4009C89.5977 23.6009 89.8903 23.7009 90.2358 23.7009Z" fill="#E28B7A"/>
<path d="M94.2939 20.6546C94.5836 20.6546 94.8085 20.7472 94.9702 20.931C95.1305 21.1118 95.2114 21.3338 95.2114 21.5955C95.2114 21.8425 95.1364 22.0366 94.9879 22.1777C94.8423 22.3189 94.6527 22.3894 94.4174 22.3894C94.3263 22.3894 94.2616 22.3762 94.2234 22.3483C94.1881 22.3218 94.1704 22.2718 94.1704 22.2012C94.1704 22.0836 94.2248 22.0234 94.3351 22.0189C94.6291 21.9925 94.7762 21.8469 94.7762 21.5838C94.7762 21.447 94.7365 21.3294 94.6585 21.2309C94.5836 21.1339 94.4601 21.0839 94.2881 21.0839C94.1072 21.0839 93.9499 21.1603 93.8176 21.3132C93.6882 21.4632 93.5838 21.6514 93.5059 21.8778C93.4309 22.1057 93.3883 22.3292 93.3765 22.5482C93.3486 22.9643 93.3353 23.3539 93.3353 23.7185C93.3353 23.9038 93.3177 24.0243 93.2824 24.0831C93.2471 24.1419 93.1795 24.1714 93.0825 24.1714C92.984 24.1714 92.9149 24.1478 92.8766 24.1008C92.8413 24.0537 92.8237 23.9714 92.8237 23.8538L92.8119 22.5717C92.8119 22.2748 92.7899 21.8822 92.7473 21.3956C92.7193 21.1133 92.7031 20.9119 92.7002 20.7898C92.6958 20.7193 92.7149 20.6663 92.759 20.631C92.8061 20.5928 92.8678 20.5722 92.9472 20.5722C93.0883 20.5722 93.1619 20.6399 93.1707 20.7722C93.1971 21.0545 93.2133 21.3309 93.2177 21.6014C93.2956 21.3044 93.4294 21.0721 93.6176 20.9074C93.8058 20.7398 94.0308 20.6546 94.2939 20.6546Z" fill="#E28B7A"/>
<path d="M97.7686 24.1478C97.404 24.1478 97.0864 24.0684 96.8159 23.9067C96.5483 23.7465 96.3469 23.5348 96.2102 23.2716C96.072 23.0099 96.0043 22.7232 96.0043 22.413C96.0043 22.0954 96.0764 21.8043 96.2219 21.5367C96.366 21.2706 96.5704 21.0589 96.8335 20.9016C97.0997 20.7457 97.4055 20.6663 97.751 20.6663C98.0568 20.6663 98.3288 20.7296 98.5684 20.8545C98.811 20.9766 98.9992 21.1471 99.133 21.3662C99.2697 21.5867 99.3388 21.8366 99.3388 22.1189C99.3388 22.2527 99.3226 22.3483 99.2918 22.4071C99.2594 22.463 99.1815 22.4924 99.0565 22.4953L96.4924 22.5482C96.4924 22.7217 96.5424 22.8981 96.6454 23.0775C96.7512 23.2539 96.8982 23.4039 97.0864 23.5245C97.2776 23.6465 97.4996 23.7068 97.751 23.7068C97.9392 23.7068 98.0994 23.6803 98.2332 23.6244C98.3699 23.57 98.4758 23.5068 98.5508 23.4362C98.6287 23.3627 98.7213 23.2598 98.8272 23.1304C98.858 23.0878 98.9066 23.0657 98.9742 23.0657C99.033 23.0657 99.0874 23.0893 99.1389 23.1363C99.1933 23.1804 99.2212 23.2304 99.2212 23.2892C99.2212 23.3363 99.2006 23.3833 99.1624 23.4304C99.0212 23.6303 98.8478 23.8009 98.6449 23.942C98.4405 24.0802 98.1479 24.1478 97.7686 24.1478ZM98.8331 22.0836C98.8801 22.0836 98.9036 22.0528 98.9036 21.9895C98.9036 21.719 98.7948 21.5014 98.5802 21.3368C98.364 21.1692 98.0921 21.0839 97.7627 21.0839C97.5157 21.0839 97.2952 21.1471 97.1041 21.2721C96.9115 21.3985 96.76 21.547 96.6512 21.719C96.5454 21.8881 96.4924 22.0307 96.4924 22.1483L98.8331 22.0836Z" fill="#E28B7A"/>
</svg>
